<?xml version="1.0" encoding="UTF-8"?>
<svg width="100px" height="100px" viewBox="0 0 100 100" version="1.1" xmlns="http://www.w3.org/2000/svg" xmlns:xlink="http://www.w3.org/1999/xlink">
    <title>magic-wand</title>
    <g id="magic-wand" stroke="none" stroke-width="1" fill="none" fill-rule="evenodd">
        <g id="medal-copy-4" transform="translate(14, 16)" fill="#7850D4" fill-rule="nonzero">
            <path d="M25.1066282,66.5461178 C25.8213256,66.5461178 26.2247839,66.1620636 26.3170029,65.3939552 C26.5706052,63.1827341 26.8472622,61.4486712 27.1469741,60.1917665 C27.4466859,58.9348619 27.9193084,57.9805454 28.5648415,57.3288171 C29.2103746,56.6770888 30.1729107,56.1882925 31.4524496,55.8624283 C32.7319885,55.5365642 34.4899135,55.199062 36.7262248,54.8499218 C37.5331412,54.7102658 37.9365994,54.3145736 37.9365994,53.6628452 C37.9365994,52.9878409 37.5792507,52.5921487 36.8645533,52.4757686 C34.6051873,52.0102484 32.8299712,51.6087372 31.5389049,51.271235 C30.2478386,50.9337328 29.2737752,50.4565746 28.6167147,49.8397603 C27.9596542,49.222946 27.4755043,48.2977245 27.1642651,47.0640959 C26.8530259,45.8304673 26.5706052,44.1080424 26.3170029,41.8968213 C26.2247839,41.1287129 25.8213256,40.7446587 25.1066282,40.7446587 C24.4149856,40.7446587 24.0230548,41.1170749 23.9308357,41.8619072 C23.6541787,44.1196804 23.3659942,45.8886573 23.0662824,47.1688379 C22.7665706,48.4490186 22.2939481,49.4149731 21.648415,50.0667014 C21.0028818,50.7184297 20.0288184,51.201407 18.7262248,51.5156331 C17.4236311,51.8298593 15.6311239,52.1499045 13.3487032,52.4757686 C13.0489914,52.4990446 12.795389,52.6154247 12.5878963,52.8249088 C12.3804035,53.0343929 12.2766571,53.3137051 12.2766571,53.6628452 C12.2766571,54.3145736 12.6340058,54.7102658 13.3487032,54.8499218 C15.6311239,55.2921661 17.4236311,55.6878583 18.7262248,56.0369984 C20.0288184,56.3861386 20.9971182,56.8749349 21.6311239,57.5033872 C22.2651297,58.1318395 22.7319885,59.06288 23.0317003,60.2965086 C23.3314121,61.5301372 23.6311239,63.2525621 23.9308357,65.4637832 C23.9769452,65.7896474 24.1095101,66.0515025 24.3285303,66.2493486 C24.5475504,66.4471947 24.8069164,66.5461178 25.1066282,66.5461178 Z M9.47550432,37.6023971 C9.95965418,37.6023971 10.2478386,37.3230849 10.3400576,36.7644607 C10.6167147,35.1816919 10.870317,33.9306062 11.1008646,33.0112038 C11.3314121,32.0918013 11.6829971,31.3818829 12.1556196,30.8814487 C12.6282421,30.3810144 13.3256484,30.0027792 14.2478386,29.7467431 C15.1700288,29.490707 16.4610951,29.2113948 18.1210375,28.9088067 C18.6512968,28.8157026 18.9164265,28.5247525 18.9164265,28.0359562 C18.9164265,27.523884 18.6628242,27.2329338 18.1556196,27.1631058 C16.4726225,26.8372416 15.1700288,26.5404725 14.2478386,26.2727983 C13.3256484,26.0051242 12.6340058,25.626889 12.1729107,25.1380928 C11.7118156,24.6492965 11.3602305,23.9451972 11.1181556,23.0257947 C10.8760807,22.1063922 10.6167147,20.8553066 10.3400576,19.2725378 C10.2478386,18.7139135 9.95965418,18.4346014 9.47550432,18.4346014 C8.96829971,18.4346014 8.6685879,18.7139135 8.57636888,19.2725378 C8.32276657,20.8553066 8.07492795,22.1122112 7.83285303,23.0432517 C7.5907781,23.9742922 7.23919308,24.6842105 6.77809798,25.1730068 C6.31700288,25.661803 5.62536023,26.0400382 4.70317003,26.3077124 C3.78097983,26.5753865 2.48991354,26.8605176 0.829971182,27.1631058 C0.276657061,27.2329338 0,27.523884 0,28.0359562 C0,28.5247525 0.276657061,28.8157026 0.829971182,28.9088067 C2.46685879,29.2113948 3.75216138,29.496526 4.68587896,29.7642001 C5.61959654,30.0318742 6.31123919,30.4159284 6.76080692,30.9163627 C7.21037464,31.4167969 7.55619597,32.1208963 7.79827089,33.0286608 C8.04034582,33.9364252 8.29971182,35.1816919 8.57636888,36.7644607 C8.62247839,37.0204968 8.7204611,37.2241619 8.870317,37.375456 C9.02017291,37.52675 9.22190202,37.6023971 9.47550432,37.6023971 Z M27.4582133,16.2001042 C27.8501441,16.2001042 28.092219,15.9673441 28.184438,15.5018239 C28.4610951,14.1518152 28.7089337,13.0927566 28.9279539,12.3246483 C29.1469741,11.5565399 29.4466859,10.9746396 29.8270893,10.5789474 C30.2074928,10.1832552 30.778098,9.86902901 31.5389049,9.63626889 C32.2997118,9.40350877 33.3832853,9.14747264 34.7896254,8.8681605 C35.2507205,8.75178044 35.481268,8.49574431 35.481268,8.10005211 C35.481268,7.6810839 35.2507205,7.43668577 34.7896254,7.36685774 C33.3832853,7.06426958 32.2997118,6.79077645 31.5389049,6.54637832 C30.778098,6.3019802 30.2017291,5.98193504 29.8097983,5.58624283 C29.4178674,5.19055063 29.1123919,4.60865034 28.8933718,3.84054195 C28.6743516,3.07243356 28.4380403,2.02501303 28.184438,0.698280354 C28.1152738,0.232760118 27.8731988,0 27.4582133,0 C27.0432277,0 26.8011527,0.221122112 26.7319885,0.663366337 C26.4553314,2.03665103 26.2132565,3.10734758 26.0057637,3.87545597 C25.7982709,4.64356436 25.4985591,5.22546465 25.1066282,5.62115685 C24.7146974,6.01684905 24.1325648,6.33689422 23.3602305,6.58129234 C22.5878963,6.82569046 21.4985591,7.0875456 20.092219,7.36685774 C19.6311239,7.43668577 19.4005764,7.6810839 19.4005764,8.10005211 C19.4005764,8.49574431 19.6311239,8.75178044 20.092219,8.8681605 C21.4985591,9.14747264 22.5936599,9.40350877 23.3775216,9.63626889 C24.1613833,9.86902901 24.7435159,10.1832552 25.1239193,10.5789474 C25.5043228,10.9746396 25.7982709,11.5565399 26.0057637,12.3246483 C26.2132565,13.0927566 26.4553314,14.1518152 26.7319885,15.5018239 C26.8011527,15.9673441 27.0432277,16.2001042 27.4582133,16.2001042 Z M54.9510086,27.8963002 C55.4351585,27.8963002 55.7348703,27.628626 55.8501441,27.0932777 C56.1268012,25.5105089 56.3861671,24.2536043 56.6282421,23.3225638 C56.870317,22.3915234 57.221902,21.681605 57.6829971,21.1928088 C58.1440922,20.7040125 58.8299712,20.3257773 59.740634,20.0581032 C60.6512968,19.790429 61.9365994,19.5169359 63.5965418,19.2376238 C64.1498559,19.1445197 64.426513,18.8419316 64.426513,18.3298593 C64.426513,17.8410631 64.1498559,17.5384749 63.5965418,17.4220948 C61.9365994,17.1427827 60.6455331,16.8692896 59.7233429,16.6016154 C58.8011527,16.3339413 58.1095101,15.9557061 57.648415,15.4669098 C57.1873199,14.9781136 56.8357349,14.2740142 56.5936599,13.3546118 C56.351585,12.4352093 56.1037464,11.1841237 55.8501441,9.60135487 C55.7579251,9.04273059 55.4582133,8.76341845 54.9510086,8.76341845 C54.4668588,8.76341845 54.1786744,9.04273059 54.0864553,9.60135487 C53.8097983,11.1841237 53.5504323,12.4410283 53.3083573,13.3720688 C53.0662824,14.3031093 52.7146974,15.0130276 52.2536023,15.5018239 C51.7925072,15.9906201 51.1008646,16.3688553 50.1786744,16.6365294 C49.2564841,16.9042036 47.9654179,17.1660587 46.3054755,17.4220948 C46.074928,17.4686469 45.8789625,17.5733889 45.7175793,17.736321 C45.556196,17.8992531 45.4755043,18.0970992 45.4755043,18.3298593 C45.4985591,18.8419316 45.7752161,19.1445197 46.3054755,19.2376238 C47.9654179,19.5402119 49.2564841,19.8253431 50.1786744,20.0930172 C51.1008646,20.3606913 51.7925072,20.7389265 52.2536023,21.2277228 C52.7146974,21.716519 53.0662824,22.4206184 53.3083573,23.3400208 C53.5504323,24.2594233 53.8097983,25.5105089 54.0864553,27.0932777 C54.1786744,27.628626 54.4668588,27.8963002 54.9510086,27.8963002 Z M65.4293948,65.8478374 C66.1902017,66.6159458 67.1123919,67 68.1959654,67 C69.2795389,67 70.167147,66.6159458 70.8587896,65.8478374 C71.6195965,65.056453 72,64.1312315 72,63.072173 C72,62.0131145 71.6195965,61.099531 70.8587896,60.3314226 L39.8040346,28.8389786 C39.0662824,28.0708702 38.1498559,27.6868161 37.054755,27.6868161 C35.9596542,27.6868161 35.054755,28.0708702 34.3400576,28.8389786 C33.6023055,29.607087 33.2334294,30.5264895 33.2334294,31.597186 C33.2334294,32.6678826 33.6023055,33.587285 34.3400576,34.3553934 L65.4293948,65.8478374 Z M66.7435159,63.3689422 L47.4121037,43.8170922 L49.1757925,42.0713913 L68.5072046,61.6930693 C68.8299712,61.9956575 69.0201729,62.3157026 69.0778098,62.6532048 C69.1354467,62.990707 69.0259366,63.3223901 68.7492795,63.6482543 C68.426513,63.9275664 68.0979827,64.0381275 67.7636888,63.9799375 C67.4293948,63.9217474 67.0893372,63.7180823 66.7435159,63.3689422 Z" id="Shape"></path>
        </g>
    </g>
</svg>