<?xml version="1.0" encoding="UTF-8"?>
<svg width="100px" height="100px" viewBox="0 0 100 100" version="1.1" xmlns="http://www.w3.org/2000/svg" xmlns:xlink="http://www.w3.org/1999/xlink">
    <title>circular</title>
    <g id="circular" stroke="none" stroke-width="1" fill="none" fill-rule="evenodd">
        <g transform="translate(6, 6)" fill="#FFFFFF" fill-rule="nonzero" id="Shape">
            <path d="M44.021793,88 C50.0657091,88 55.7391448,86.8522371 61.0421,84.5567112 C66.3450553,82.2611854 71.0232789,79.0939409 75.0767707,75.0549777 C79.1302625,71.0160145 82.297507,66.337791 84.5785042,61.0203071 C86.8595014,55.7028232 88,50.0366518 88,44.021793 C88,37.9778768 86.8522371,32.2971768 84.5567112,26.9796929 C82.2611854,21.662209 79.0939409,16.9839855 75.0549777,12.9450223 C71.0160145,8.90605911 66.337791,5.73881459 61.0203071,3.44328876 C55.7028232,1.14776292 50.0221232,0 43.978207,0 C37.9342909,0 32.2608552,1.14776292 26.9579,3.44328876 C21.6549447,5.73881459 16.9839855,8.90605911 12.9450223,12.9450223 C8.90605911,16.9839855 5.73881459,21.662209 3.44328876,26.9796929 C1.14776292,32.2971768 0,37.9778768 0,44.021793 C0,50.0366518 1.14776292,55.7028232 3.44328876,61.0203071 C5.73881459,66.337791 8.90605911,71.0160145 12.9450223,75.0549777 C16.9839855,79.0939409 21.6549447,82.2611854 26.9579,84.5567112 C32.2608552,86.8522371 37.9488195,88 44.021793,88 Z M44.1089648,66.2942051 C40.3605745,66.2942051 36.9463431,65.5387155 33.8662704,64.0277365 C30.7861978,62.5167575 28.2073634,60.4173683 26.1297672,57.7295691 C24.052171,55.0417699 22.6646855,51.9544329 21.9673105,48.4675582 L18.6547796,48.4675582 C17.492488,48.4675582 16.7369985,47.9808486 16.388311,47.0074294 C16.0396236,46.0340102 16.228496,45.0678554 16.9549282,44.1089648 L23.5799901,35.2610203 C24.2483077,34.3602443 25.0837048,33.9171207 26.0861813,33.9316493 C27.0886578,33.946178 27.9240548,34.3893016 28.5923725,35.2610203 L35.3046062,44.1089648 C36.0310385,45.0678554 36.2199108,46.0340102 35.8712234,47.0074294 C35.5225359,47.9808486 34.7525177,48.4675582 33.5611689,48.4675582 L30.5537395,48.4675582 C31.1929998,50.2981674 32.166419,51.9326399 33.473997,53.3709757 C34.781575,54.8093115 36.3506686,55.9280172 38.1812779,56.7270926 C40.0118871,57.5261681 41.9877827,57.9257058 44.1089648,57.9257058 C45.5037147,57.9257058 46.8112927,57.7223048 48.0316989,57.3155027 C49.252105,56.9087007 50.4725111,56.2984976 51.6929173,55.4848935 C52.9423807,54.6712894 54.1046723,54.4025095 55.179792,54.6785537 C56.2549117,54.954598 57.1266303,55.5720654 57.794948,56.5309559 C58.4342084,57.4607892 58.6303451,58.5068516 58.3833581,59.6691431 C58.1363711,60.8314347 57.3881459,61.8339112 56.1386825,62.6765726 C54.5695889,63.8098068 52.768037,64.6960542 50.7340267,65.3353145 C48.7000165,65.9745749 46.4916625,66.2942051 44.1089648,66.2942051 Z M44.0653789,21.662209 C47.7556546,21.662209 51.1480931,22.4176985 54.2426944,23.9286776 C57.3372957,25.4396566 59.9306587,27.5463101 62.0227836,30.2486379 C64.1149084,32.9509658 65.4951296,36.0455671 66.1634473,39.5324418 L69.3888063,39.5324418 C70.5510979,39.5324418 71.3065874,40.0118871 71.6552749,40.9707776 C72.0039624,41.9296682 71.81509,42.9030873 71.0886578,43.8910352 L64.4635958,52.7389797 C63.7952782,53.6397557 62.9598811,54.0828793 61.9574047,54.0683507 C60.9549282,54.053822 60.1195311,53.6106984 59.4512135,52.7389797 L52.7389797,43.8910352 C52.0125475,42.9321446 51.8236751,41.9659898 52.1723626,40.9925706 C52.52105,40.0191514 53.2910682,39.5324418 54.482417,39.5324418 L57.5770183,39.5324418 C56.937758,37.6727753 55.9570745,36.0310385 54.6349678,34.6072313 C53.3128612,33.1834241 51.7510319,32.0647185 49.9494799,31.2511144 C48.147928,30.4375103 46.186561,30.0307083 44.0653789,30.0307083 C42.6415717,30.0307083 41.3194651,30.2341093 40.0990589,30.6409113 C38.8786528,31.0477134 37.6582467,31.6579165 36.4378405,32.4715206 C35.1883771,33.2851246 34.0260855,33.5539046 32.9509658,33.2778603 C31.8758461,33.0018161 31.0186561,32.36982 30.3793957,31.3818722 C29.7401354,30.4810963 29.5367344,29.4568268 29.7691927,28.3090639 C30.001651,27.161301 30.7426119,26.1660888 31.9920753,25.3234274 C33.5611689,24.1611359 35.3627208,23.2603599 37.3967311,22.6210996 C39.4307413,21.9818392 41.6536239,21.662209 44.0653789,21.662209 Z"></path>
        </g>
    </g>
</svg>