<?xml version="1.0" encoding="UTF-8"?>
<svg width="100px" height="100px" viewBox="0 0 100 100" version="1.1" xmlns="http://www.w3.org/2000/svg" xmlns:xlink="http://www.w3.org/1999/xlink">
    <title>info</title>
    <g id="info" stroke="none" stroke-width="1" fill="none" fill-rule="evenodd">
        <g id="bolt" transform="translate(6, 6)" fill="#FFFFFF" fill-rule="nonzero">
            <path d="M44.021793,88 C50.0657091,88 55.7391448,86.8522371 61.0421,84.5567112 C66.3450553,82.2611854 71.0232789,79.0939409 75.0767707,75.0549777 C79.1302625,71.0160145 82.297507,66.337791 84.5785042,61.0203071 C86.8595014,55.7028232 88,50.0366518 88,44.021793 C88,37.9778768 86.8522371,32.2971768 84.5567112,26.9796929 C82.2611854,21.662209 79.0939409,16.9839855 75.0549777,12.9450223 C71.0160145,8.90605911 66.337791,5.73881459 61.0203071,3.44328876 C55.7028232,1.14776292 50.0221232,0 43.978207,0 C37.9342909,0 32.2608552,1.14776292 26.9579,3.44328876 C21.6549447,5.73881459 16.9839855,8.90605911 12.9450223,12.9450223 C8.90605911,16.9839855 5.73881459,21.662209 3.44328876,26.9796929 C1.14776292,32.2971768 0,37.9778768 0,44.021793 C0,50.0366518 1.14776292,55.7028232 3.44328876,61.0203071 C5.73881459,66.337791 8.90605911,71.0160145 12.9450223,75.0549777 C16.9839855,79.0939409 21.6549447,82.2611854 26.9579,84.5567112 C32.2608552,86.8522371 37.9488195,88 44.021793,88 Z M36.089153,67.2095097 C34.8978042,67.2095097 33.8807991,66.8245006 33.0381377,66.0544824 C32.1954763,65.2844643 31.7741456,64.2601948 31.7741456,62.9816741 C31.7741456,61.8484398 32.1954763,60.8750206 33.0381377,60.0614165 C33.8807991,59.2478124 34.8978042,58.8410104 36.089153,58.8410104 L40.7528479,58.8410104 L40.7528479,45.0678554 L36.9608717,45.0678554 C35.7114083,45.0678554 34.6798745,44.675582 33.8662704,43.8910352 C33.0526663,43.1064884 32.6458643,42.1040119 32.6458643,40.8836057 C32.6458643,39.7213142 33.0526663,38.7333664 33.8662704,37.9197623 C34.6798745,37.1061582 35.7114083,36.6993561 36.9608717,36.6993561 L45.4601288,36.6993561 C47.0292224,36.6993561 48.2133069,37.19333 49.0123824,38.1812779 C49.8114578,39.1692257 50.2109955,40.4913323 50.2109955,42.1475978 L50.2109955,58.8410104 L53.6978702,58.8410104 C54.8892191,58.8410104 55.8989599,59.2478124 56.7270926,60.0614165 C57.5552254,60.8750206 57.9692917,61.8484398 57.9692917,62.9816741 C57.9692917,64.2601948 57.5552254,65.2844643 56.7270926,66.0544824 C55.8989599,66.8245006 54.8892191,67.2095097 53.6978702,67.2095097 L36.089153,67.2095097 Z M44.021793,31.1203566 C42.1911838,31.1203566 40.6148258,30.4593033 39.2927192,29.1371966 C37.9706125,27.81509 37.3095592,26.2532607 37.3095592,24.4517088 C37.3095592,22.5339277 37.9706125,20.9285125 39.2927192,19.6354631 C40.6148258,18.3424137 42.1911838,17.6958891 44.021793,17.6958891 C45.8524022,17.6958891 47.4214958,18.3424137 48.7290738,19.6354631 C50.0366518,20.9285125 50.6904408,22.5339277 50.6904408,24.4517088 C50.6904408,26.2532607 50.0366518,27.81509 48.7290738,29.1371966 C47.4214958,30.4593033 45.8524022,31.1203566 44.021793,31.1203566 Z" id="Shape"></path>
        </g>
    </g>
</svg>