<?xml version="1.0" encoding="UTF-8"?>
<svg width="100px" height="100px" viewBox="0 0 100 100" version="1.1" xmlns="http://www.w3.org/2000/svg" xmlns:xlink="http://www.w3.org/1999/xlink">
    <title>skyline</title>
    <g id="skyline" stroke="none" stroke-width="1" fill="none" fill-rule="evenodd">
        <g id="Group" fill="#FFFFFF">
            <rect id="Rectangle" x="19" y="50" width="15" height="50" rx="2.36273098"></rect>
            <rect id="Rectangle-Copy-3" x="0" y="72" width="15" height="28" rx="2.36273098"></rect>
            <path d="M43.1217671,19.6671486 L44.6405418,19.6671486 L44.6405418,19.6671486 L46.1513229,7.93473333 C46.2272012,7.345478 46.7288934,6.90424633 47.323014,6.90424633 L48.3623122,6.90424633 C49.0147624,6.90424633 49.5436777,6.375331 49.5436777,5.72288087 L49.5436777,2.50909394 C49.5436777,1.12335962 50.6670373,2.54555265e-16 52.0527716,0 C53.438506,-2.54555265e-16 54.5618656,1.12335962 54.5618656,2.50909394 L54.5618656,5.72288087 C54.5618656,6.375331 55.0907809,6.90424633 55.7432311,6.90424633 L56.5793805,6.90424633 C57.1575979,6.90424633 57.6508441,7.32277139 57.7449836,7.89327394 L59.6878078,19.6671486 L59.6878078,19.6671486 L61.3963052,19.6671486 C62.7012055,19.6671486 63.7590361,20.7249793 63.7590361,22.0298795 L63.7590361,97.6372691 C63.7590361,98.9421693 62.7012055,100 61.3963052,100 L43.1217671,100 C41.8168668,100 40.7590361,98.9421693 40.7590361,97.6372691 L40.7590361,22.0298795 C40.7590361,20.7249793 41.8168668,19.6671486 43.1217671,19.6671486 Z" id="Rectangle-Copy"></path>
            <path d="M73.5852435,42.2346093 L83.6292705,45.549924 C83.7487438,45.5893595 83.8737495,45.6094571 83.999563,45.6094571 L93.8793926,45.6094571 C94.5318428,45.6094571 95.0607581,46.1383724 95.0607581,46.7908225 L95.0607581,50.3264594 C95.0607581,50.8579839 95.4157277,51.3240627 95.9281345,51.4653339 L98.2652473,52.1096788 C99.2900609,52.3922212 100,53.3243789 100,54.3874279 L100,97.8475414 C100,99.1524417 98.9421693,100.210272 97.6372691,100.210272 L72.8446586,100.210272 C71.5397584,100.210272 70.4819277,99.1524417 70.4819277,97.8475414 L70.4819277,44.4782741 C70.4819277,43.1733738 71.5397584,42.1155432 72.8446586,42.1155432 C73.0962855,42.1155432 73.346297,42.1557383 73.5852435,42.2346093 Z" id="Rectangle-Copy-2"></path>
        </g>
    </g>
</svg>