<?xml version="1.0" encoding="UTF-8"?>
<svg width="100px" height="100px" viewBox="0 0 100 100" version="1.1" xmlns="http://www.w3.org/2000/svg" xmlns:xlink="http://www.w3.org/1999/xlink">
    <title>cars</title>
    <g id="cars" stroke="none" stroke-width="1" fill="none" fill-rule="evenodd">
        <g id="medal-copy-6" transform="translate(12, 28)" fill="#7850D4" fill-rule="nonzero">
            <path d="M48.4849534,38.2991344 C50.5176161,38.2991344 52.652621,38.2780439 54.8899679,38.2358627 C57.1273149,38.1936816 59.3209416,38.1304099 61.4708481,38.0460477 C63.6207545,37.9616855 65.5922352,37.8642735 67.38529,37.7538117 C69.1783448,37.6433499 70.6386401,37.5206292 71.7661758,37.3856496 C73.4346345,37.1918801 74.7240532,36.6359462 75.6344319,35.7178479 C76.5448106,34.7997495 77,33.5368865 77,31.9292588 L77,27.8063184 C77,26.4288413 76.9008089,25.2237137 76.7024267,24.1909355 C76.5040445,23.1581572 76.1867774,22.1889802 75.7506253,21.2834044 C75.3144733,20.3778286 74.7251035,19.4493168 73.982516,18.497869 L71.9170303,15.8618129 C71.6297634,14.4123643 71.2802641,12.987829 70.8685324,11.5882069 C70.4568007,10.1885847 70.0492703,8.92776484 69.6459413,7.80574718 C69.2426123,6.68372951 68.905717,5.83430731 68.6352555,5.25748056 C67.9837846,3.86313107 67.0492481,2.75930401 65.8316461,1.94599938 C64.6140442,1.13269476 63.1992416,0.613867042 61.5872384,0.389516235 C61.0281971,0.320444659 60.1138796,0.25934795 58.844286,0.206226108 C57.5746924,0.153104266 56.0543967,0.113493563 54.2833989,0.087393998 C52.5124011,0.061294433 50.579586,0.0482446505 48.4849534,0.0482446505 C46.4037127,0.0482446505 44.4741798,0.0651170965 42.6963549,0.0988619887 C40.9185299,0.132606881 39.3982342,0.176040248 38.1354678,0.22916209 C36.8727013,0.282283932 35.9625852,0.335735314 35.4051194,0.389516235 C33.7915407,0.596994596 32.3759504,1.1116042 31.1583484,1.93334505 C29.9407464,2.7550859 29.0069977,3.86313107 28.3571023,5.25748056 C28.0866408,5.83430731 27.7493516,6.68372951 27.3452349,7.80574718 C26.9411181,8.92776484 26.5331939,10.1885847 26.1214621,11.5882069 C25.7097304,12.987829 25.3602311,14.4123643 25.0729642,15.8618129 L23.0098418,18.497869 C22.2656787,19.4493168 21.6755212,20.3778286 21.2393692,21.2834044 C20.8032172,22.1889802 20.4858844,23.1581572 20.2873709,24.1909355 C20.0888574,25.2237137 19.9896007,26.4288413 19.9896007,27.8063184 L19.9896007,31.9292588 C19.9896007,33.5368865 20.4448557,34.800145 21.3553657,35.7190342 C22.2658757,36.6379235 23.5561478,37.1934619 25.226182,37.3856496 C26.3537177,37.5190474 27.8140129,37.6409772 29.6070678,37.751439 C31.4001226,37.8619008 33.3712094,37.9593128 35.5203281,38.043675 C37.6694468,38.1280373 39.8630735,38.1917044 42.1012082,38.2346764 C44.3393429,38.2776484 46.467258,38.2991344 48.4849534,38.2991344 Z M30.1350585,13.7623797 C30.3267449,12.9240301 30.5639895,12.0355244 30.8467925,11.0968628 C31.1295954,10.1582012 31.4233613,9.28755657 31.72809,8.48492904 C32.0328187,7.68230151 32.3055779,7.06217321 32.5463674,6.62454414 C32.8785361,6.03189947 33.2546221,5.59025001 33.6746252,5.29959576 C34.0946283,5.00894152 34.6475645,4.81906059 35.3334339,4.72995299 C36.2115148,4.61342765 37.7077184,4.51884969 39.8220448,4.44621908 C41.9363711,4.37358847 44.8240073,4.33727317 48.4849534,4.33727317 C52.1608668,4.33727317 55.0555271,4.36976581 57.1689344,4.43475109 C59.2823417,4.49973637 60.772309,4.598137 61.6388362,4.72995299 C62.3380974,4.83593304 62.893922,5.03003208 63.3063102,5.3122501 C63.7186984,5.59446812 64.097804,6.03189947 64.4436271,6.62454414 C64.6996465,7.06217321 64.976607,7.68230151 65.2745086,8.48492904 C65.5724101,9.28755657 65.858561,10.1582012 66.1329613,11.0968628 C66.4073616,12.0355244 66.6413239,12.9240301 66.8348483,13.7623797 C66.958788,14.2369173 66.9206476,14.5770025 66.7204273,14.7826354 C66.520207,14.9882684 66.1728741,15.0826486 65.6784284,15.0657762 C64.3996443,14.9880047 62.9871394,14.9089811 61.4409135,14.8287051 C59.8946876,14.7484292 58.072486,14.6872007 55.9743085,14.6450196 C53.8761311,14.6028384 51.3796794,14.5817479 48.4849534,14.5817479 C45.5899649,14.5817479 43.0975832,14.6028384 41.0078085,14.6450196 C38.9180337,14.6872007 37.0996395,14.7484292 35.5526259,14.8287051 C34.0056123,14.9089811 32.5927135,14.9880047 31.3139294,15.0657762 C30.8194837,15.0826486 30.4751048,14.9882684 30.2807927,14.7826354 C30.0864805,14.5770025 30.0379025,14.2369173 30.1350585,13.7623797 Z M31.1567729,31.7378619 C30.0431541,31.7378619 29.1127534,31.363175 28.3655706,30.6138011 C27.6183879,29.8644273 27.2447965,28.9300497 27.2447965,27.8106683 C27.2447965,26.6910233 27.6183879,25.7565139 28.3655706,25.00714 C29.1127534,24.2577662 30.0431541,23.8830792 31.1567729,23.8830792 C32.2717045,23.8830792 33.2023679,24.2577662 33.9487629,25.00714 C34.6951579,25.7565139 35.0683554,26.6910233 35.0683554,27.8106683 C35.0683554,28.9300497 34.6951579,29.8644273 33.9487629,30.6138011 C33.2023679,31.363175 32.2717045,31.7378619 31.1567729,31.7378619 Z M42.1147969,30.772178 C41.2902832,30.772178 40.6152454,30.5083483 40.0896835,29.980689 C39.5641216,29.4530296 39.3013407,28.7677842 39.3013407,27.9249528 C39.3013407,27.0971484 39.5641216,26.4194165 40.0896835,25.8917571 C40.6152454,25.3640977 41.2902832,25.100268 42.1147969,25.100268 L54.8775608,25.100268 C55.7020746,25.100268 56.3771124,25.3640977 56.9026743,25.8917571 C57.4282361,26.4194165 57.6910171,27.0971484 57.6910171,27.9249528 C57.6910171,28.7677842 57.4282361,29.4530296 56.9026743,29.980689 C56.3771124,30.5083483 55.7020746,30.772178 54.8775608,30.772178 L42.1147969,30.772178 Z M65.8332216,31.7378619 C64.71829,31.7378619 63.787561,31.363175 63.0410347,30.6138011 C62.2945084,29.8644273 61.9212453,28.9300497 61.9212453,27.8106683 C61.9212453,26.6910233 62.2945084,25.7565139 63.0410347,25.00714 C63.787561,24.2577662 64.71829,23.8830792 65.8332216,23.8830792 C66.9484159,23.8830792 67.8792105,24.2577662 68.6256055,25.00714 C69.3720005,25.7565139 69.745198,26.6910233 69.745198,27.8106683 C69.745198,28.9300497 69.3720005,29.8644273 68.6256055,30.6138011 C67.8792105,31.363175 66.9484159,31.7378619 65.8332216,31.7378619 Z M23.1977206,45 L26.029689,45 C26.9285141,45 27.6840995,44.692671 28.2964454,44.0780131 C28.9087913,43.4633552 29.2149642,42.7048201 29.2149642,41.8024078 L29.2149642,35.7888308 L19.9896007,31.2613472 L19.9896007,41.8024078 C19.9896007,42.7048201 20.2957736,43.4633552 20.9081195,44.0780131 C21.5204654,44.692671 22.2836657,45 23.1977206,45 Z M70.9626687,45 L73.7922739,45 C74.6926744,45 75.4523956,44.692671 76.0714373,44.0780131 C76.6904791,43.4633552 77,42.7048201 77,41.8024078 L77,31.2613472 L67.7773936,35.7888308 L67.7773936,41.8024078 C67.7773936,42.7048201 68.0831726,43.4633552 68.6947308,44.0780131 C69.3062889,44.692671 70.0622682,45 70.9626687,45 Z M10.1497905,13.9450767 C10.3435775,13.1085724 10.5822007,12.2235599 10.8656602,11.2900391 C11.1491196,10.3565183 11.4448548,9.48475328 11.7528658,8.67474406 C12.0608769,7.86473483 12.3376404,7.22681137 12.5831564,6.76097368 C12.9008831,6.19126499 13.2697479,5.76774023 13.689751,5.4903994 C14.1097541,5.21305857 14.6617714,5.02891164 15.3458027,4.93795861 C16.1044078,4.83672393 17.2778957,4.75018674 18.8662663,4.67834703 C20.4546369,4.60650732 22.5815673,4.56215124 25.2470574,4.54527879 C25.5529678,3.62573048 25.9160558,2.80010106 26.3363215,2.06839053 C26.7565872,1.33667999 27.316088,0.647216486 28.0148241,0 C24.6091096,0.0321631003 21.8389797,0.0827804385 19.7044344,0.151852015 C17.5698891,0.220923591 16.1326356,0.29249967 15.3926739,0.366580254 C13.7638654,0.55876796 12.3406601,1.07337756 11.1230581,1.91040907 C9.90545612,2.74744057 8.97170743,3.86313107 8.32181203,5.25748056 C8.05135052,5.83430731 7.71406137,6.68372951 7.3099446,7.80574718 C6.90582783,8.92776484 6.50164541,10.1885847 6.09739735,11.5882069 C5.69314929,12.987829 5.34739181,14.4123643 5.06012491,15.8618129 L3.02024113,18.497869 C2.29104537,19.4646074 1.70456402,20.4007645 1.26079706,21.3063403 C0.817030107,22.2119162 0.495955524,23.1810932 0.297573315,24.2138714 C0.0991911049,25.2466497 0,26.4525682 0,27.831627 L0.0228448077,31.9521947 C0.0380746796,33.5598225 0.497465382,34.8192583 1.40101692,35.7305022 C2.30456845,36.6417461 3.59057358,37.1934619 5.25903229,37.3856496 C6.49396483,37.5375016 8.11391115,37.669054 10.1188713,37.7803067 C12.1238314,37.8915594 14.2828626,37.9893668 16.5959651,38.0737291 L16.5959651,27.831627 C16.5959651,25.762907 16.8221812,24.0490355 17.2746134,22.6900127 C17.7270456,21.3309899 18.5066575,19.9336087 19.6134491,18.497869 L21.65609,15.8618129 L21.9715847,14.8249484 C20.387678,14.8571115 18.9698557,14.8926359 17.7181178,14.9315216 C16.4663799,14.9704073 15.3258463,15.0177292 14.296517,15.0734874 C13.2671877,15.1292456 12.2779025,15.1884969 11.3286614,15.2512413 C10.8344783,15.2831407 10.4906246,15.1958786 10.2971002,14.9894547 C10.1035757,14.7830309 10.0544725,14.4349049 10.1497905,13.9450767 Z M9.14186186,30.449888 C8.13432706,30.449888 7.29294229,30.1074959 6.61770754,29.4227119 C5.94247279,28.7379279 5.60485542,27.8897579 5.60485542,26.878202 C5.60485542,25.8663825 5.94247279,25.0181467 6.61770754,24.3334944 C7.29294229,23.6488422 8.13432706,23.3065161 9.14186186,23.3065161 C10.1648891,23.3065161 11.0135606,23.6488422 11.6878763,24.3334944 C12.362192,25.0181467 12.6993498,25.8663825 12.6993498,26.878202 C12.6993498,27.8897579 12.362192,28.7379279 11.6878763,29.4227119 C11.0135606,30.1074959 10.1648891,30.449888 9.14186186,30.449888 Z M3.23057092,45 L6.08538413,45 C6.98420915,45 7.73598714,44.692671 8.34071808,44.0780131 C8.94544903,43.4633552 9.2478145,42.7048201 9.2478145,41.8024078 L9.2478145,35.141087 L0.0228448077,30.6365394 L0.0228448077,41.8253438 C0.0228448077,42.7293378 0.33275957,43.4844457 0.952589095,44.0906674 C1.57241862,44.6968891 2.33174589,45 3.23057092,45 Z" id="Shape"></path>
        </g>
    </g>
</svg>