<?xml version="1.0" encoding="UTF-8"?>
<svg width="100px" height="100px" viewBox="0 0 100 100" version="1.1" xmlns="http://www.w3.org/2000/svg" xmlns:xlink="http://www.w3.org/1999/xlink">
    <title>circular</title>
    <g id="circular" stroke="none" stroke-width="1" fill="none" fill-rule="evenodd">
        <g transform="translate(18.347266, 18.495703)" fill="#7850D4" fill-rule="nonzero" id="Shape">
            <path d="M31.9570313,63.8824219 C36.3445313,63.8824219 40.4630859,63.0492188 44.3126953,61.3828125 C48.1623047,59.7164063 51.5583984,57.4171875 54.5009766,54.4851563 C57.4435547,51.553125 59.7427734,48.1570313 61.3986328,44.296875 C63.0544922,40.4367188 63.8824219,36.3234375 63.8824219,31.9570313 C63.8824219,27.5695313 63.0492188,23.4457031 61.3828125,19.5855469 C59.7164063,15.7253906 57.4171875,12.3292969 54.4851562,9.39726563 C51.553125,6.46523438 48.1570313,4.16601563 44.296875,2.49960938 C40.4367187,0.833203125 36.3128906,0 31.9253906,0 C27.5378906,0 23.4193359,0.833203125 19.5697266,2.49960938 C15.7201172,4.16601563 12.3292969,6.46523438 9.39726563,9.39726563 C6.46523438,12.3292969 4.16601563,15.7253906 2.49960937,19.5855469 C0.833203125,23.4457031 0,27.5695313 0,31.9570313 C0,36.3234375 0.833203125,40.4367188 2.49960937,44.296875 C4.16601563,48.1570313 6.46523438,51.553125 9.39726563,54.4851563 C12.3292969,57.4171875 15.7201172,59.7164063 19.5697266,61.3828125 C23.4193359,63.0492188 27.5484375,63.8824219 31.9570313,63.8824219 Z M32.0203125,48.1253906 C29.2992188,48.1253906 26.8207031,47.5769531 24.5847656,46.4800781 C22.3488281,45.3832031 20.4767578,43.8591797 18.9685547,41.9080078 C17.4603516,39.9568359 16.453125,37.715625 15.946875,35.184375 L13.5421875,35.184375 C12.6984375,35.184375 12.15,34.8310547 11.896875,34.1244141 C11.64375,33.4177734 11.7808594,32.7164063 12.3082031,32.0203125 L17.1175781,25.5972656 C17.6027344,24.9433594 18.2091797,24.6216797 18.9369141,24.6322266 C19.6646484,24.6427734 20.2710938,24.9644531 20.75625,25.5972656 L25.6289063,32.0203125 C26.15625,32.7164063 26.2933594,33.4177734 26.0402344,34.1244141 C25.7871094,34.8310547 25.228125,35.184375 24.3632813,35.184375 L22.1800781,35.184375 C22.6441406,36.5132813 23.3507813,37.6998047 24.3,38.7439453 C25.2492188,39.7880859 26.3882813,40.6001953 27.7171875,41.1802734 C29.0460937,41.7603516 30.4804687,42.0503906 32.0203125,42.0503906 C33.0328125,42.0503906 33.9820313,41.9027344 34.8679687,41.6074219 C35.7539062,41.3121094 36.6398437,40.8691406 37.5257813,40.2785156 C38.4328125,39.6878906 39.2765625,39.4927734 40.0570313,39.6931641 C40.8375,39.8935547 41.4703125,40.3417969 41.9554688,41.0378906 C42.4195313,41.7128906 42.5619141,42.4722656 42.3826172,43.3160156 C42.2033203,44.1597656 41.6601563,44.8875 40.753125,45.4992188 C39.6140625,46.321875 38.30625,46.9652344 36.8296875,47.4292969 C35.353125,47.8933594 33.75,48.1253906 32.0203125,48.1253906 Z M31.9886719,15.7253906 C34.6675781,15.7253906 37.1302734,16.2738281 39.3767578,17.3707031 C41.6232422,18.4675781 43.5058594,19.996875 45.0246094,21.9585938 C46.5433594,23.9203125 47.5453125,26.1667969 48.0304688,28.6980469 L50.371875,28.6980469 C51.215625,28.6980469 51.7640625,29.0460938 52.0171875,29.7421875 C52.2703125,30.4382813 52.1332031,31.1449219 51.6058594,31.8621094 L46.7964844,38.2851563 C46.3113281,38.9390625 45.7048828,39.2607422 44.9771484,39.2501953 C44.2494141,39.2396484 43.6429687,38.9179688 43.1578125,38.2851563 L38.2851563,31.8621094 C37.7578125,31.1660156 37.6207031,30.4646484 37.8738281,29.7580078 C38.1269531,29.0513672 38.6859375,28.6980469 39.5507813,28.6980469 L41.7972656,28.6980469 C41.3332031,27.3480469 40.6212891,26.15625 39.6615234,25.1226563 C38.7017578,24.0890625 37.5679688,23.2769531 36.2601563,22.6863281 C34.9523437,22.0957031 33.5285156,21.8003906 31.9886719,21.8003906 C30.9550781,21.8003906 29.9953125,21.9480469 29.109375,22.2433594 C28.2234375,22.5386719 27.3375,22.9816406 26.4515625,23.5722656 C25.5445313,24.1628906 24.7007813,24.3580078 23.9203125,24.1576172 C23.1398437,23.9572266 22.5175781,23.4984375 22.0535156,22.78125 C21.5894531,22.1273438 21.4417969,21.3837891 21.6105469,20.5505859 C21.7792969,19.7173828 22.3171875,18.9949219 23.2242187,18.3832031 C24.3632813,17.5394531 25.6710938,16.8855469 27.1476563,16.4214844 C28.6242188,15.9574219 30.2378906,15.7253906 31.9886719,15.7253906 Z"></path>
        </g>
    </g>
</svg>