<?xml version="1.0" encoding="UTF-8"?>
<svg width="100px" height="100px" viewBox="0 0 100 100" version="1.1" xmlns="http://www.w3.org/2000/svg" xmlns:xlink="http://www.w3.org/1999/xlink">
    <title>co2</title>
    <g id="co2" stroke="none" stroke-width="1" fill="none" fill-rule="evenodd">
        <g id="medal-copy-7" transform="translate(14.6254, 22.774)" fill="#7850D4" fill-rule="nonzero">
            <path d="M15.4104675,57.2369019 L54.5444824,57.2369019 C57.0869385,57.2369019 59.458255,56.7878357 61.658432,55.8897034 C63.858609,54.991571 65.7815186,53.7402832 67.4271606,52.1358398 C69.0728027,50.5313965 70.3552368,48.6597382 71.2744629,46.5208649 C72.193689,44.3819916 72.653302,42.0708252 72.653302,39.5873657 C72.653302,37.1019287 72.185202,34.7924103 71.2490021,32.6588104 C70.3128021,30.5252106 68.9890045,28.6642639 67.2776093,27.0759705 C65.566214,25.487677 63.5522552,24.248172 61.235733,23.3574554 C58.9192108,22.4667389 56.3987549,22.0213806 53.6743652,22.0213806 C51.6562866,18.0564148 48.8825409,14.946817 45.3531281,12.6925873 C41.8237152,10.4383575 37.8166443,9.31124268 33.3319153,9.31124268 C30.4176819,9.31124268 27.6536591,9.83751526 25.0398468,10.8900604 C22.4260345,11.9426056 20.0873474,13.4180969 18.0237854,15.3165344 C15.9602234,17.2149719 14.2807159,19.4386322 12.9852631,21.9875153 C11.6898102,24.5363983 10.9033264,27.3091553 10.6258118,30.3057861 C8.5932312,30.8977295 6.81674194,31.8324463 5.29634399,33.1099365 C3.77594604,34.3874268 2.5928833,35.9218323 1.74715576,37.7131531 C0.901428223,39.5044739 0.478564453,41.4734436 0.478564453,43.6200623 C0.478564453,46.1361511 1.07388611,48.4233398 2.26452942,50.4816284 C3.45517273,52.539917 5.16244812,54.180368 7.38635559,55.4029816 C9.61026306,56.6255951 12.284967,57.2369019 15.4104675,57.2369019 Z M26.0006836,46.9932495 C24.1892578,46.9932495 22.7337891,46.5361908 21.6342773,45.6220734 C20.5347656,44.7079559 19.7346039,43.4969604 19.2337921,41.9890869 C18.7329803,40.4812134 18.4825745,38.8352417 18.4825745,37.0511719 C18.4825745,35.2628174 18.7488007,33.6200592 19.2812531,32.1228973 C19.8137054,30.6257355 20.6244141,29.4311371 21.7133789,28.5391022 C22.8023438,27.6470673 24.1988159,27.2010498 25.9027954,27.2010498 C27.9310913,27.2010498 29.5397369,27.8183716 30.7287323,29.0530151 C31.9177277,30.2876587 32.5313416,31.7030823 32.569574,33.2992859 C32.5886902,33.8658508 32.4444946,34.3250519 32.1369873,34.676889 C31.82948,35.0287262 31.4219421,35.2046448 30.9143738,35.2046448 C30.012616,35.2046448 29.4312195,34.6578552 29.1701843,33.5642761 C29.0034119,32.8022644 28.6830505,32.0893616 28.2091003,31.4255676 C27.7351501,30.7617737 26.9884644,30.4298767 25.969043,30.4298767 C24.9918091,30.4298767 24.2177673,30.7485077 23.6469177,31.3857697 C23.0760681,32.0230316 22.6661407,32.8485718 22.4171356,33.8623901 C22.1681305,34.8762085 22.0436279,35.9391357 22.0436279,37.0511719 C22.0436279,38.2304443 22.1628571,39.3317688 22.4013153,40.3551453 C22.6397736,41.3785217 23.0497009,42.2072754 23.6310974,42.8414062 C24.2124939,43.4755371 25.002356,43.7926025 26.0006836,43.7926025 C27.0220825,43.7926025 27.7807983,43.4559265 28.2768311,42.7825745 C28.7728638,42.1092224 29.1042664,41.4020874 29.2710388,40.6611694 C29.5281189,39.5679199 30.1085266,39.0212952 31.012262,39.0212952 C31.5178528,39.0212952 31.9239075,39.1923523 32.230426,39.5344666 C32.5369446,39.8765808 32.6806458,40.3300964 32.6615295,40.8950134 C32.6232971,42.491217 32.010672,43.9066406 30.8236542,45.1412842 C29.6366364,46.3759277 28.0289795,46.9932495 26.0006836,46.9932495 Z M41.3849487,46.9932495 C39.1035278,46.9932495 37.2907013,46.1007202 35.9464691,44.3156616 C34.6022369,42.530603 33.9301208,40.1196533 33.9301208,37.0828125 C33.9301208,34.0670654 34.6022369,31.6661682 35.9464691,29.8801208 C37.2907013,28.0940735 39.1035278,27.2010498 41.3849487,27.2010498 C43.6472534,27.2010498 45.4441772,28.0940735 46.7757202,29.8801208 C48.1072632,31.6661682 48.7730347,34.0670654 48.7730347,37.0828125 C48.7730347,40.1196533 48.1072632,42.530603 46.7757202,44.3156616 C45.4441772,46.1007202 43.6472534,46.9932495 41.3849487,46.9932495 Z M51.1979919,48.0996826 C50.8904846,48.0996826 50.6315094,47.9886108 50.4210663,47.7664673 C50.2106232,47.5443237 50.1054016,47.2689514 50.1054016,46.9403503 C50.1054016,46.504303 50.2611328,46.1198364 50.5725952,45.7869507 L52.9580017,43.3570496 C53.291217,43.0235046 53.5987244,42.6631805 53.8805237,42.2760773 C54.162323,41.888974 54.3032227,41.5411743 54.3032227,41.2326782 C54.3032227,40.7359863 54.0472961,40.4876404 53.5354431,40.4876404 C53.1129089,40.4876404 52.8077087,40.7707581 52.6198425,41.3369934 C52.5123962,41.551886 52.3654816,41.7756775 52.1790985,42.0083679 C51.9927155,42.2410583 51.7014404,42.3574036 51.3052734,42.3574036 C50.9746948,42.3574036 50.6872925,42.2357849 50.4430664,41.9925476 C50.1988403,41.7493103 50.0767273,41.4297729 50.0767273,41.0339355 C50.0767273,40.3678345 50.3848938,39.7075012 51.0012268,39.0529358 C51.6175598,38.3983704 52.4622986,38.0710876 53.5354431,38.0710876 C54.5390442,38.0710876 55.3644196,38.3614563 56.0115692,38.9421936 C56.6587189,39.5229309 56.9822937,40.2643433 56.9822937,41.1664307 C56.9822937,41.7903442 56.7825623,42.3934113 56.3830994,42.9756317 C55.9836365,43.5578522 55.4885925,44.1493835 54.8979675,44.7502258 L53.9586365,45.7207031 L56.1991882,45.7207031 C56.5277893,45.7207031 56.8079407,45.8418274 57.0396423,46.0840759 C57.271344,46.3263245 57.3871948,46.5916443 57.3871948,46.8800354 C57.3871948,47.2109436 57.2719208,47.4969452 57.0413727,47.7380402 C56.8108246,47.9791351 56.5300964,48.0996826 56.1991882,48.0996826 L51.1979919,48.0996826 Z M41.3849487,43.7926025 C42.5879517,43.7926025 43.5323914,43.2038727 44.2182678,42.026413 C44.9041443,40.8489532 45.2470825,39.2010864 45.2470825,37.0828125 C45.2470825,34.9836548 44.8993652,33.3500427 44.2039307,32.1819763 C43.5084961,31.0139099 42.5688354,30.4298767 41.3849487,30.4298767 C40.1796387,30.4298767 39.228772,31.0139099 38.5323486,32.1819763 C37.8359253,33.3500427 37.4877136,34.9836548 37.4877136,37.0828125 C37.4877136,39.2010864 37.8359253,40.8489532 38.5323486,42.026413 C39.228772,43.2038727 40.1796387,43.7926025 41.3849487,43.7926025 Z M4.26011353,27.5253662 C5.4324646,27.5253662 6.42453003,27.1142853 7.23630981,26.2921234 C8.0480896,25.4699615 8.45397949,24.4610046 8.45397949,23.2652527 C8.45397949,22.1120178 8.0480896,21.1247314 7.23630981,20.3033936 C6.42453003,19.4820557 5.4324646,19.0713867 4.26011353,19.0713867 C3.06469116,19.0713867 2.05581665,19.4820557 1.23348999,20.3033936 C0.41116333,21.1247314 0,22.1120178 0,23.2652527 C0,24.4610046 0.41116333,25.4699615 1.23348999,26.2921234 C2.05581665,27.1142853 3.06469116,27.5253662 4.26011353,27.5253662 Z M48.6029663,7.94476318 C49.6929199,7.94476318 50.6321686,7.5546936 51.4207123,6.77455444 C52.209256,5.99441528 52.6035278,5.06035767 52.6035278,3.97238159 C52.6035278,2.88209839 52.209256,1.94746399 51.4207123,1.16847839 C50.6321686,0.389492798 49.6929199,0 48.6029663,0 C47.5149902,0 46.5809326,0.389492798 45.8007935,1.16847839 C45.0206543,1.94746399 44.6305847,2.88209839 44.6305847,3.97238159 C44.6305847,5.06035767 45.0206543,5.99441528 45.8007935,6.77455444 C46.5809326,7.5546936 47.5149902,7.94476318 48.6029663,7.94476318 Z M61.3516663,18.4163269 C62.9963196,18.4163269 64.3947693,17.8396271 65.5470154,16.6862274 C66.6992615,15.5328278 67.2753845,14.124408 67.2753845,12.460968 C67.2753845,10.8163147 66.6992615,9.41679382 65.5470154,8.2624054 C64.3947693,7.10801697 62.9963196,6.53082275 61.3516663,6.53082275 C59.6859192,6.53082275 58.2758514,7.10801697 57.121463,8.2624054 C55.9670746,9.41679382 55.3898804,10.8163147 55.3898804,12.460968 C55.3898804,14.124408 55.9670746,15.5328278 57.121463,16.6862274 C58.2758514,17.8396271 59.6859192,18.4163269 61.3516663,18.4163269 Z" id="Shape"></path>
        </g>
    </g>
</svg>