<svg id="Layer_1" data-name="Layer 1" xmlns="http://www.w3.org/2000/svg" width="776" height="240.94785" viewBox="0 0 776 240.94785">
  <defs>
    <style>
      .cls-1 {
        fill: #08042b;
      }
    </style>
  </defs>
  <title>Tiptapp Logo Dark</title>
  <path class="cls-1" d="M742.21708,75.30152q27.62937,0,38.19607,14.62755Q788.00009,99.95243,788,115.395a70.30243,70.30243,0,0,1-1.3569,13.27346l-5.41633,31.69588q-4.60422,25.73479-19.77649,39.14621-15.16956,13.40716-37.92582,13.41-22.75638,0-31.69587-12.19247l-8.887,50.8579-45.97347-.13087,30.4783-172.63188h41.72073L707.813,86.137Q720.54176,75.30291,742.21708,75.30152ZM714.043,173.91093a23.007,23.007,0,0,0,14.087-4.87873q6.49881-4.873,8.12735-14.62755l3.52179-20.317a35.38575,35.38575,0,0,0,.5405-6.77327q0-4.06224-3.52178-8.66785-3.52026-4.60847-12.18964-4.60562-14.08991,0-18.42236,6.77328L698.05853,166.324Q701.85188,173.91091,714.043,173.91093Zm-134.13995,0a23.00737,23.00737,0,0,0,14.087-4.87873q6.49868-4.873,8.12448-14.62755l3.52179-20.317a35.36574,35.36574,0,0,0,.54337-6.77327q0-4.06224-3.52179-8.66785-3.5204-4.60847-12.18964-4.60562-14.08991,0-18.42245,6.77328L563.9185,166.324Q567.712,173.91091,579.903,173.91093ZM152.771,173.87108l16.7867-95.08194h41.71786l-1.35408,7.31377q12.73295-10.83835,34.404-10.83556,27.6336,0,38.19889,14.62755,7.58263,10.02343,7.584,25.466a70.54555,70.54555,0,0,1-1.35408,13.27347l-5.41919,31.69587Q278.731,186.065,263.55867,199.47357q-15.16951,13.41145-37.92582,13.41-22.75638,0-31.69588-12.18964L185.05,251.55189l-45.97065-.13087,7.48158-42.38919a44.02974,44.02974,0,0,1-18.34275,3.85176q-16.73549,0-25.48017-5.24282c-11.1513,4.17037-24.63243,5.24282-40.432,5.24282-17.2191,0-28.1286-6.82449-35.39118-14.087q-10.29218-10.29222-10.29219-27.63081a74.32882,74.32882,0,0,1,1.08383-12.1896l7.35931-41.89708L12,117.42327l7.0549-38.526C43.272,78.425,45.5734,76.30856,52.25281,43.0196L84.32133,42.866,77.84674,78.78914H95.69739l-6.77331,38.19607H71.07347l-5.41919,30.61205c-.72255,3.43071-1.51907,10.93509-1.741,13.63474-.53764,6.65095,1.906,12.70167,10.34623,12.64194,4.6739-.03129,10.07034,1.54751,15.95038-7.31377a39.76961,39.76961,0,0,0,5.28832-13.32756L108.7148,78.78914H154.768L139.5971,164.12221a18.07779,18.07779,0,0,0-.27025,2.98128q0,7.31381,8.12453,7.31378A25.1106,25.1106,0,0,0,152.771,173.87108Zm363.86262-.60592,16.67289-94.4419h41.71785L573.67023,86.137q12.733-10.83412,34.4069-10.83551,27.62938,0,38.19608,14.62755,7.58681,10.02336,7.584,25.46593a70.2883,70.2883,0,0,1-1.354,13.27346l-5.41641,31.69588q-4.60839,25.73479-19.77649,39.14621-15.16944,13.40716-37.92582,13.41-22.75624,0-31.69587-12.19247L548.7988,251.586l-45.9707-.13087,7.64667-43.31085a44.64189,44.64189,0,0,1-19.69688,4.43493q-29.797,0-33.04992-21.67111-13.54376,21.66825-39.82331,21.67111-19.02262,0-29.90082-7.00372c-12.01042,5.89424-27.096,7.30809-45.2396,7.30809-17.22194,0-28.13147-6.82449-35.3912-14.087q-10.29645-10.29222-10.295-27.63081a74.32882,74.32882,0,0,1,1.08383-12.1896l7.36213-41.89708-13.06581.34421,7.05207-38.526c24.21711-.47222,26.52133-2.58866,33.19789-35.87762l32.06853-.15361-6.47459,35.92315h17.85065l-6.77045,38.19607H351.52881l-5.41633,30.61205c-.72259,3.43071-1.52193,10.93509-1.741,13.63474-.5405,6.65095,1.9031,12.70167,10.34341,12.64194,4.67672-.03129,10.0703,1.54751,15.95316-7.31377,2.89881-4.36666,4.52027-9.43312,5.82031-15.76829l4.03382-22.46477q4.33109-24.37782,19.91022-38.87313,15.57483-14.49523,40.63394-14.49386,25.06063,0,34.00018,11.64914l1.354-8.12736h41.17735L502.427,163.81784a19.53381,19.53381,0,0,0-.27025,3.24867q0,7.045,7.17726,7.04352A29.34114,29.34114,0,0,0,516.63361,173.26516Zm-300.48224.60878a22.998,22.998,0,0,0,14.08709-4.87586q6.503-4.87729,8.12735-14.62755l3.52179-20.31986a35.33712,35.33712,0,0,0,.5405-6.7704q0-4.06655-3.519-8.67073-3.52457-4.60422-12.19246-4.60561-14.08562,0-18.41954,6.77327l-8.1274,45.51272Q203.95891,173.87248,216.15137,173.87394Zm205.81844-19.81065a32.84861,32.84861,0,0,0-.54337,6.77327q0,4.33539,4.06515,8.53417,4.06226,4.19884,13.68024,4.1988t16.65865-7.58685l8.12735-45.50985q-2.97841-6.77188-14.087-6.77327-20.8575,0-24.3792,20.04674ZM137.61718,10.63816A27.50845,27.50845,0,1,1,110.1116,38.1466,27.52151,27.52151,0,0,1,137.61718,10.63816Z" transform="translate(-12 -10.63816)"/>
</svg>
