<?xml version="1.0" encoding="UTF-8"?>
<svg width="100px" height="100px" viewBox="0 0 100 100" version="1.1" xmlns="http://www.w3.org/2000/svg" xmlns:xlink="http://www.w3.org/1999/xlink">
    <title>bolt</title>
    <g id="bolt" stroke="none" stroke-width="1" fill="none" fill-rule="evenodd">
        <g transform="translate(18.000000, 18.000000)" fill="#7850D4" fill-rule="nonzero" id="Shape">
            <path d="M31.9570312,63.8824219 C36.3445313,63.8824219 40.4630859,63.0492188 44.3126953,61.3828125 C48.1623047,59.7164063 51.5583984,57.4171875 54.5009766,54.4851563 C57.4435547,51.553125 59.7427734,48.1570313 61.3986328,44.296875 C63.0544922,40.4367188 63.8824219,36.3234375 63.8824219,31.9570312 C63.8824219,27.5695313 63.0492188,23.4457031 61.3828125,19.5855469 C59.7164063,15.7253906 57.4171875,12.3292969 54.4851563,9.39726563 C51.553125,6.46523438 48.1570313,4.16601563 44.296875,2.49960938 C40.4367188,0.833203125 36.3128906,0 31.9253906,0 C27.5378906,0 23.4193359,0.833203125 19.5697266,2.49960938 C15.7201172,4.16601563 12.3292969,6.46523438 9.39726563,9.39726563 C6.46523438,12.3292969 4.16601563,15.7253906 2.49960938,19.5855469 C0.833203125,23.4457031 0,27.5695313 0,31.9570312 C0,36.3234375 0.833203125,40.4367188 2.49960938,44.296875 C4.16601563,48.1570313 6.46523438,51.553125 9.39726563,54.4851563 C12.3292969,57.4171875 15.7201172,59.7164063 19.5697266,61.3828125 C23.4193359,63.0492188 27.5484375,63.8824219 31.9570312,63.8824219 Z M18.6363281,33.8871094 C18.6363281,33.3808594 18.8261719,32.8957031 19.2058594,32.4316406 L35.5640625,12.5613281 C36.1125,11.9285156 36.7083984,11.6279297 37.3517578,11.6595703 C37.9951172,11.6912109 38.4908203,11.9601562 38.8388672,12.4664063 C39.1869141,12.9726563 39.2132813,13.6160156 38.9179688,14.3964844 L33.7921875,27.7804688 L43.4109375,27.7804688 C43.8960938,27.7804688 44.3179688,27.9492188 44.6765625,28.2867188 C45.0351563,28.6242188 45.2144531,29.0355469 45.2144531,29.5207031 C45.2144531,30.0480469 45.0246094,30.5332031 44.6449219,30.9761719 L28.2550781,50.8464844 C27.7277344,51.4792969 27.1423828,51.7851563 26.4990234,51.7640625 C25.8556641,51.7429688 25.3546875,51.4740234 24.9960937,50.9572266 C24.6375,50.4404297 24.6164063,49.7917969 24.9328125,49.0113281 L30.0269531,35.6273438 L20.4398438,35.6273438 C19.9335938,35.6273438 19.5064453,35.4585938 19.1583984,35.1210937 C18.8103516,34.7835938 18.6363281,34.3722656 18.6363281,33.8871094 Z"></path>
        </g>
    </g>
</svg>