<?xml version="1.0" encoding="UTF-8"?>
<svg width="100px" height="100px" viewBox="0 0 100 100" version="1.1" xmlns="http://www.w3.org/2000/svg" xmlns:xlink="http://www.w3.org/1999/xlink">
    <title>credit-card-lock</title>
    <g id="credit-card-lock" stroke="none" stroke-width="1" fill="none" fill-rule="evenodd">
        <g transform="translate(6.625391, 19.706659)" fill="#7850D4" fill-rule="nonzero" id="Shape">
            <path d="M70.596,25.004 L70.9897066,25 C68.2585349,25 65.6886258,25.5180992 63.2799794,26.5542975 C60.871333,27.5904958 58.7440384,29.0315663 56.8980957,30.877509 C55.052153,32.7234517 53.6076514,34.8541774 52.5645908,37.2696861 C51.5215303,39.6851947 51,42.2585349 51,44.9897066 C51,47.2620872 51.3597805,49.419244 52.0793416,51.461177 L9.62319946,51.4605103 C6.44628296,51.4605103 4.04818726,50.6651276 2.42891235,49.0743622 C0.809637451,47.4835968 0,45.109314 0,41.9515137 L0,19.1287354 L70.5966614,19.1287354 L70.596,25.004 Z M0,9.50603027 C0,6.34822998 0.809637451,3.97444153 2.42891235,2.38466492 C4.04818726,0.794888306 6.44628296,0 9.62319946,0 L60.9704956,0 C64.1685059,0 66.5723694,0.799667358 68.1820862,2.39900208 C69.791803,3.99833679 70.5966614,6.36734619 70.5966614,9.50603027 L70.5966614,12.2478882 L0,12.2478882 Z M71.00772,60 C73.0560988,60 74.986104,59.606279 76.7977355,58.8188369 C78.609367,58.0313948 80.2048379,56.9480185 81.5841482,55.5687082 C82.9634586,54.1893978 84.0442615,52.5965003 84.8265569,50.7900154 C85.6088523,48.9835306 86,47.0509521 86,44.99228 C86,42.9439012 85.606279,41.013896 84.8188369,39.2022645 C84.0313948,37.390633 82.9480185,35.7925888 81.5687082,34.4081318 C80.1893978,33.0236747 78.5939269,31.9428718 76.7822954,31.1657231 C74.9706639,30.3885744 73.0406588,30 70.99228,30 C68.9439012,30 67.0164694,30.3885744 65.2099846,31.1657231 C63.4034997,31.9428718 61.8080288,33.0236747 60.4235718,34.4081318 C59.0391148,35.7925888 57.9557385,37.390633 57.1734431,39.2022645 C56.3911477,41.013896 56,42.9439012 56,44.99228 C56,47.0509521 56.393721,48.9835306 57.1811631,50.7900154 C57.9686052,52.5965003 59.0519815,54.1893978 60.4312918,55.5687082 C61.8106022,56.9480185 63.4034997,58.0313948 65.2099846,58.8188369 C67.0164694,59.606279 68.9490479,60 71.00772,60 Z M65.5728255,50.9212558 L65.5728255,44.9768399 C65.5728255,43.9475039 66.0051467,43.4019557 66.869789,43.3401956 L66.869789,41.5954709 C66.869789,40.2058672 67.2506433,39.0838909 68.012352,38.2295419 C68.7740607,37.375193 69.7725167,36.9480185 71.00772,36.9480185 C72.2429233,36.9480185 73.2439527,37.375193 74.010808,38.2295419 C74.7776634,39.0838909 75.1610911,40.2058672 75.1610911,41.5954709 L75.1610911,43.3401956 C76.01544,43.4019557 76.4426145,43.9475039 76.4426145,44.9768399 L76.4426145,50.9212558 C76.4426145,52.0432321 75.9227998,52.6042203 74.8831704,52.6042203 L67.1477097,52.6042203 C66.0977869,52.6042203 65.5728255,52.0432321 65.5728255,50.9212558 Z M68.5681935,43.3093155 L73.4626866,43.3093155 L73.4626866,41.4256305 C73.4626866,40.5712815 73.2362326,39.8816264 72.7833248,39.356665 C72.3304169,38.8317036 71.7385486,38.5692229 71.00772,38.5692229 C70.266598,38.5692229 69.6747298,38.8317036 69.2321153,39.356665 C68.7895008,39.8816264 68.5681935,40.5712815 68.5681935,41.4256305 L68.5681935,43.3093155 Z"></path>
        </g>
    </g>
</svg>