<?xml version="1.0" encoding="UTF-8"?>
<svg width="100px" height="100px" viewBox="0 0 100 100" version="1.1" xmlns="http://www.w3.org/2000/svg" xmlns:xlink="http://www.w3.org/1999/xlink">
    <title>euro</title>
    <g id="euro" stroke="none" stroke-width="1" fill="none" fill-rule="evenodd">
        <g transform="translate(18.000000, 18.000000)" fill="#7850D4" fill-rule="nonzero" id="Shape">
            <path d="M31.9570313,63.8824219 C36.3445313,63.8824219 40.4630859,63.0492188 44.3126953,61.3828125 C48.1623047,59.7164063 51.5583984,57.4171875 54.5009766,54.4851563 C57.4435547,51.553125 59.7427734,48.1570313 61.3986328,44.296875 C63.0544922,40.4367188 63.8824219,36.3234375 63.8824219,31.9570313 C63.8824219,27.5695313 63.0492188,23.4457031 61.3828125,19.5855469 C59.7164063,15.7253906 57.4171875,12.3292969 54.4851563,9.39726563 C51.553125,6.46523438 48.1570313,4.16601563 44.296875,2.49960938 C40.4367188,0.833203125 36.3128906,0 31.9253906,0 C27.5378906,0 23.4193359,0.833203125 19.5697266,2.49960938 C15.7201172,4.16601563 12.3292969,6.46523438 9.39726563,9.39726563 C6.46523438,12.3292969 4.16601563,15.7253906 2.49960938,19.5855469 C0.833203125,23.4457031 4.54747351e-13,27.5695313 4.54747351e-13,31.9570313 C4.54747351e-13,36.3234375 0.833203125,40.4367188 2.49960938,44.296875 C4.16601563,48.1570313 6.46523438,51.553125 9.39726563,54.4851563 C12.3292969,57.4171875 15.7201172,59.7164063 19.5697266,61.3828125 C23.4193359,63.0492188 27.5484375,63.8824219 31.9570313,63.8824219 Z M36.0070313,46.2269531 C32.2101563,46.2269531 29.025,45.3357422 26.4515625,43.5533203 C23.878125,41.7708984 22.2011719,39.2554688 21.4207031,36.0070313 L18.8894531,36.0070313 C18.4464844,36.0070313 18.1037109,35.8804688 17.8611328,35.6273438 C17.6185547,35.3742188 17.4972656,35.0472656 17.4972656,34.6464844 C17.4972656,34.2457031 17.6185547,33.91875 17.8611328,33.665625 C18.1037109,33.4125 18.4464844,33.2859375 18.8894531,33.2859375 L20.9777344,33.2859375 C20.9777344,33.1171875 20.9724609,32.9167969 20.9619141,32.6847656 C20.9513672,32.4527344 20.9460938,32.2101563 20.9460938,31.9570313 C20.9460938,31.7039063 20.9460938,31.4771484 20.9460938,31.2767578 C20.9460938,31.0763672 20.9566406,30.9023438 20.9777344,30.7546875 L18.8894531,30.7546875 C18.4464844,30.7546875 18.1037109,30.628125 17.8611328,30.375 C17.6185547,30.121875 17.4972656,29.8054688 17.4972656,29.4257813 C17.4972656,29.0039063 17.6185547,28.6664063 17.8611328,28.4132813 C18.1037109,28.1601563 18.4464844,28.0335938 18.8894531,28.0335938 L21.3257813,28.0335938 C22.0640625,24.721875 23.7304688,22.1589844 26.325,20.3449219 C28.9195313,18.5308594 32.1574219,17.6238281 36.0386719,17.6238281 C36.9878906,17.6238281 37.8,17.6976563 38.475,17.8453125 C39.15,17.9929688 39.6667969,18.2144531 40.0253906,18.5097656 C40.4894531,18.7839844 40.8058594,19.1162109 40.9746094,19.5064453 C41.1433594,19.8966797 41.2277344,20.3132813 41.2277344,20.75625 C41.2277344,21.3046875 41.1117188,21.7582031 40.8796875,22.1167969 C40.6476563,22.4753906 40.3417969,22.7390625 39.9621094,22.9078125 C39.5613281,23.1398438 39.0023438,23.2664063 38.2851563,23.2875 C37.5679688,23.3085938 36.8613281,23.3296875 36.1652344,23.3507813 C34.3300781,23.4140625 32.7005859,23.8359375 31.2767578,24.6164063 C29.8529297,25.396875 28.8984375,26.5359375 28.4132813,28.0335938 L37.3992188,28.0335938 C37.8421875,28.0335938 38.1849609,28.1601563 38.4275391,28.4132813 C38.6701172,28.6664063 38.7914063,29.0039063 38.7914063,29.4257813 C38.7914063,29.8054688 38.6701172,30.121875 38.4275391,30.375 C38.1849609,30.628125 37.8421875,30.7546875 37.3992188,30.7546875 L27.7171875,30.7546875 C27.675,30.9023438 27.6486328,31.0763672 27.6380859,31.2767578 C27.6275391,31.4771484 27.6222656,31.6933594 27.6222656,31.9253906 C27.6222656,32.1996094 27.6380859,32.4632813 27.6697266,32.7164063 C27.7013672,32.9695313 27.7277344,33.159375 27.7488281,33.2859375 L37.3992188,33.2859375 C37.8421875,33.2859375 38.1849609,33.4125 38.4275391,33.665625 C38.6701172,33.91875 38.7914063,34.2457031 38.7914063,34.6464844 C38.7914063,35.0472656 38.6701172,35.3742188 38.4275391,35.6273438 C38.1849609,35.8804688 37.8421875,36.0070313 37.3992188,36.0070313 L28.4765625,36.0070313 C28.9828125,37.4625 29.9267578,38.5699219 31.3083984,39.3292969 C32.6900391,40.0886719 34.2773438,40.5 36.0703125,40.5632813 C36.8296875,40.5632813 37.5521484,40.584375 38.2376953,40.6265625 C38.9232422,40.66875 39.4769531,40.7847656 39.8988281,40.9746094 C40.3207031,41.1644531 40.6634766,41.4333984 40.9271484,41.7814453 C41.1908203,42.1294922 41.3226563,42.5777344 41.3226563,43.1261719 C41.3226563,44.0753906 40.9113281,44.8136719 40.0886719,45.3410156 C39.6667969,45.6363281 39.1236328,45.8578125 38.4591797,46.0054688 C37.7947266,46.153125 36.9773438,46.2269531 36.0070313,46.2269531 Z"></path>
        </g>
    </g>
</svg>