<?xml version="1.0" encoding="UTF-8"?>
<svg width="100px" height="100px" viewBox="0 0 100 100" version="1.1" xmlns="http://www.w3.org/2000/svg" xmlns:xlink="http://www.w3.org/1999/xlink">
    <title>leaf</title>
    <g id="leaf" stroke="none" stroke-width="1" fill="none" fill-rule="evenodd">
        <g transform="translate(16.000000, 21.000000)" fill="#7850D4" fill-rule="nonzero" id="Path">
            <path d="M0.968005371,2.42499241 C0.61072998,3.97109837 0.360076904,5.6836472 0.216046143,7.5626389 C0.0720153809,9.44163059 0,11.0935349 0,12.5183518 C0,18.3623093 0.840866089,23.6618668 2.52259827,28.4170243 C4.20433044,33.1721817 6.6039917,37.2564591 9.72158203,40.6698563 C12.8391724,44.0832535 16.5782867,46.7083542 20.9389252,48.5451584 C25.2995636,50.3819626 30.1587891,51.3003647 35.5166016,51.3003647 C39.177356,51.3003647 42.3321899,50.8394333 44.9811035,49.9175705 C47.6300171,48.9957077 49.8424713,47.8793045 51.6184662,46.5683609 C53.3944611,45.2574173 54.80354,43.9847062 55.8457031,42.7502274 C56.8878662,41.5157486 57.6393311,40.5789719 58.1000977,39.9398972 L51.8367371,39.3510849 C53.4461243,41.0438584 54.7330902,42.6884293 55.6976349,44.2847977 C56.6621796,45.8811661 57.4785736,47.5660294 58.146817,49.3393876 C58.8150604,51.1127457 59.5003601,53.1084946 60.2027161,55.3266343 C60.4410095,56.1258896 60.8417908,56.7245896 61.4050598,57.1227341 C61.9683289,57.5208786 62.6026245,57.7199509 63.3079468,57.7199509 C64.6381714,57.7199509 65.765451,57.2121354 66.6897858,56.1965043 C67.6141205,55.1808731 68.0762878,53.9232407 68.0762878,52.4236069 C68.0762878,51.3349717 67.7359039,50.0919236 67.0551361,48.6944626 C66.3743683,47.2970017 65.5145508,45.8803421 64.4756836,44.444484 C63.4368164,43.0086258 62.3750427,41.6779068 61.2903625,40.452327 C60.2056824,39.2267472 59.2525085,38.2347641 58.4308411,37.4763779 C56.1210754,35.3281113 53.6549194,33.6781022 51.032373,32.5263504 C48.4098267,31.3745987 45.7520142,30.5104966 43.0589355,29.9340439 C40.3658569,29.3575913 37.7444641,28.8702927 35.1947571,28.4721482 C32.64505,28.0740036 30.2775238,27.5703904 28.0921783,26.9613083 C25.9068329,26.3522263 24.009137,25.4341538 22.3990906,24.2070908 C20.7890442,22.9800278 19.5896667,21.2384751 18.8009583,18.9824326 C18.6447327,18.578685 18.7174896,18.294249 19.0192291,18.1291245 C19.3209686,17.964 19.6221313,18.0317307 19.9227173,18.3323166 C21.665918,20.2676682 23.5086548,21.6928147 25.4509277,22.6077561 C27.3932007,23.5226975 29.4055939,24.1467759 31.4881073,24.4799912 C33.5706207,24.8132065 35.6987,25.0486985 37.872345,25.186467 C40.04599,25.3242356 42.2375977,25.5607987 44.447168,25.8961564 C46.6567383,26.231514 48.8597168,26.8621842 51.0561035,27.7881668 C53.2524902,28.7141495 55.4127869,30.151738 57.5369934,32.1009324 C58.3036194,32.7769211 59.075354,33.0012894 59.8521973,32.7740372 C60.6290405,32.546785 61.0975525,32.0254563 61.2577332,31.210051 C61.3348572,30.788176 61.3945129,30.2555588 61.4367004,29.6121994 C61.4788879,28.9688401 61.4999817,28.2823044 61.4999817,27.5525925 C61.4999817,22.5975388 60.4368073,18.4056504 58.3104584,14.9769272 C56.1841095,11.5482041 53.1845947,8.93999485 49.3119141,7.15229954 C45.4392334,5.36460423 40.8793579,4.47075657 35.6322876,4.47075657 C33.9540161,4.47075657 32.2073547,4.58462986 30.3923035,4.81237644 C28.5772522,5.04012303 26.793512,5.26786961 25.0410828,5.49561619 C23.2886536,5.72336277 21.6604797,5.83723606 20.1565613,5.83723606 C18.6084778,5.83723606 17.0127686,5.75080113 15.3694336,5.57793125 C13.7260986,5.40506138 12.097348,4.9824448 10.4831818,4.31008152 C8.8690155,3.63771824 7.32414551,2.55583958 5.84857178,1.06444554 C4.96263428,0.150163309 4.00286865,-0.175141867 2.9692749,0.0885300084 C1.93568115,0.352201883 1.26859131,1.13102268 0.968005371,2.42499241 Z"></path>
        </g>
    </g>
</svg>