<?xml version="1.0" encoding="UTF-8"?>
<svg width="100px" height="100px" viewBox="0 0 100 100" version="1.1" xmlns="http://www.w3.org/2000/svg" xmlns:xlink="http://www.w3.org/1999/xlink">
    <title>checkmark</title>
    <g id="checkmark" stroke="none" stroke-width="1" fill="none" fill-rule="evenodd">
        <g id="medal-copy-8" transform="translate(20.3473, 20.6664)" fill="#7850D4" fill-rule="nonzero">
            <path d="M30.7546875,61.4777344 C34.9523438,61.4777344 38.9074219,60.6708984 42.6199219,59.0572266 C46.3324219,57.4435547 49.6019531,55.2234375 52.4285156,52.396875 C55.2550781,49.5703125 57.4699219,46.3060547 59.0730469,42.6041016 C60.6761719,38.9021484 61.4777344,34.9417969 61.4777344,30.7230469 C61.4777344,26.5253906 60.6708984,22.5703125 59.0572266,18.8578125 C57.4435547,15.1453125 55.2234375,11.8705078 52.396875,9.03339844 C49.5703125,6.19628906 46.3007813,3.98144531 42.5882813,2.38886719 C38.8757813,0.796289062 34.9207031,0 30.7230469,0 C26.5253906,0 22.5755859,0.796289062 18.8736328,2.38886719 C15.1716797,3.98144531 11.9021484,6.19628906 9.06503906,9.03339844 C6.22792969,11.8705078 4.0078125,15.1453125 2.4046875,18.8578125 C0.8015625,22.5703125 0,26.5253906 0,30.7230469 C0,34.9417969 0.806835937,38.9021484 2.42050781,42.6041016 C4.03417969,46.3060547 6.25429688,49.5703125 9.08085937,52.396875 C11.9074219,55.2234375 15.1716797,57.4435547 18.8736328,59.0572266 C22.5755859,60.6708984 26.5359375,61.4777344 30.7546875,61.4777344 Z M27.4324219,45.4359375 C26.8628906,45.4359375 26.3566406,45.309375 25.9136719,45.05625 C25.4707031,44.803125 25.0488281,44.4234375 24.6480469,43.9171875 L17.2441406,34.8363281 C16.7167969,34.1824219 16.453125,33.5074219 16.453125,32.8113281 C16.453125,32.0730469 16.7009766,31.4455078 17.1966797,30.9287109 C17.6923828,30.4119141 18.309375,30.1535156 19.0476563,30.1535156 C19.490625,30.1535156 19.8966797,30.2484375 20.2658203,30.4382813 C20.6349609,30.628125 20.9988281,30.965625 21.3574219,31.4507813 L27.3058594,39.0445313 L39.8671875,18.8894531 C40.4789062,17.8980469 41.2382812,17.4023438 42.1453125,17.4023438 C42.8414062,17.4023438 43.4689453,17.6291016 44.0279297,18.0826172 C44.5869141,18.5361328 44.8664063,19.1320312 44.8664063,19.8703125 C44.8664063,20.2078125 44.7873047,20.5505859 44.6291016,20.8986328 C44.4708984,21.2466797 44.2863281,21.5789063 44.0753906,21.8953125 L30.0585938,43.8855469 C29.4046875,44.9191406 28.5292969,45.4359375 27.4324219,45.4359375 Z" id="Shape"></path>
        </g>
    </g>
</svg>