<?xml version="1.0" encoding="UTF-8"?>
<svg width="100px" height="100px" viewBox="0 0 100 100" version="1.1" xmlns="http://www.w3.org/2000/svg" xmlns:xlink="http://www.w3.org/1999/xlink">
    <title>stop-watch</title>
    <g id="stop-watch" stroke="none" stroke-width="1" fill="none" fill-rule="evenodd">
        <g id="medal-copy-5" transform="translate(20.3473, 14.4525)" fill="#7850D4" fill-rule="nonzero">
            <path d="M30.743811,67.68078 C34.9510254,67.68078 38.9078339,66.8746857 42.6142365,65.2624969 C46.320639,63.6503082 49.5909943,61.4323334 52.4253021,58.6085724 C55.25961,55.7848114 57.4781616,52.5192352 59.080957,48.8118439 C60.6837524,45.1044525 61.4851501,41.1471497 61.4851501,36.9399353 C61.4851501,32.7327209 60.6789734,28.7755005 59.0666199,25.0682739 C57.4542664,21.3610474 55.2309357,18.0907745 52.3966278,15.2574554 C49.5623199,12.4241364 46.2919647,10.2060791 42.5855621,8.60328369 C38.8791595,7.00048828 34.9213623,6.19909058 30.7121704,6.19909058 C26.5240723,6.19909058 22.5769043,7.00048828 18.8706665,8.60328369 C15.1644287,10.2060791 11.8941559,12.4241364 9.05984802,15.2574554 C6.22554016,18.0907745 4.00698853,21.3610474 2.40419312,25.0682739 C0.801397705,28.7755005 0,32.7327209 0,36.9399353 C0,41.1471497 0.806176758,45.1044525 2.41853027,48.8118439 C4.03088379,52.5192352 6.24943542,55.7848114 9.07418518,58.6085724 C11.8989349,61.4323334 15.1644287,63.6503082 18.8706665,65.2624969 C22.5769043,66.8746857 26.5346191,67.68078 30.743811,67.68078 Z M30.743811,41.9520081 C29.3470093,41.9520081 28.1630402,41.4663574 27.1919037,40.4950562 C26.2207672,39.5237549 25.735199,38.3482727 25.735199,36.9686096 C25.735199,36.0282898 25.988324,35.1627869 26.494574,34.3721008 C27.000824,33.5814148 27.6743408,32.9598083 28.5151245,32.5072815 L28.5151245,17.8972229 C28.5151245,17.2677063 28.7287811,16.743576 29.1560944,16.3248322 C29.5834076,15.9060883 30.1020996,15.6967163 30.7121704,15.6967163 C31.341687,15.6967163 31.8705963,15.9060883 32.2988983,16.3248322 C32.7272003,16.743576 32.9413513,17.2677063 32.9413513,17.8972229 L32.9413513,32.5453491 C33.8012512,32.9685425 34.4795471,33.5707031 34.976239,34.3518311 C35.4729309,35.132959 35.7212769,36.0052185 35.7212769,36.9686096 C35.7212769,38.3482727 35.2356262,39.5237549 34.264325,40.4950562 C33.2930237,41.4663574 32.119519,41.9520081 30.743811,41.9520081 Z M27.3884216,7.75145874 L34.0710205,7.75491943 L34.0710205,3.40383911 C34.0710205,2.4598938 33.7424194,1.65660095 33.0852173,0.993960571 C32.4280151,0.33132019 31.6391418,0 30.7185974,0 C29.8191467,0 29.0392548,0.33132019 28.3789215,0.993960571 C27.7185883,1.65660095 27.3884216,2.4598938 27.3884216,3.40383911 L27.3884216,7.75145874 Z M49.6718262,14.5754517 L54.2102783,19.4209167 L57.5458923,16.0630554 C58.2957092,15.3175232 58.6706177,14.4854736 58.6706177,13.5669067 C58.6706177,12.6842651 58.3582489,11.9301636 57.7335114,11.3046021 C57.1087738,10.6790405 56.3456909,10.3662598 55.4442627,10.3662598 C54.4564819,10.3662598 53.5992188,10.7159546 52.8724731,11.4153442 L49.6718262,14.5754517 Z" id="Shape"></path>
        </g>
    </g>
</svg>