<?xml version="1.0" encoding="UTF-8"?>
<svg width="1125px" height="495px" viewBox="0 0 1125 495" version="1.1" xmlns="http://www.w3.org/2000/svg" xmlns:xlink="http://www.w3.org/1999/xlink">
    <title>Group 5</title>
    <defs>
        <polygon id="path-1" points="0 0 245 0 245 470 0 470"></polygon>
        <polygon id="path-3" points="0 0 245 0 245 470 0 470"></polygon>
    </defs>
    <g id="Symbols" stroke="none" stroke-width="1" fill="none" fill-rule="evenodd">
        <g id="Artboard" transform="translate(-100.000000, -261.000000)">
            <g id="Group-5" transform="translate(100.000000, 261.000000)">
                <g id="" transform="translate(470.000000, 0.000000)" fill="#FFFFFF" fill-rule="nonzero">
                    <path d="M179.258621,70.5651958 C163.02682,82.0773426 154.91092,95.9345563 154.91092,112.136837 C154.91092,131.536936 164.940613,146.424558 185,156.799703 C179.613027,172.433482 171.816092,186.041977 161.609195,197.625186 C151.402299,209.208395 142.081418,215 133.646552,215 C129.677203,215 124.254789,213.685341 117.37931,211.056024 L114.083333,209.776896 C107.349617,207.147579 101.395594,205.83292 96.2212644,205.83292 C91.3304598,205.83292 85.9789272,206.863328 80.1666667,208.924145 L76.0201149,210.41646 L70.8103448,212.548339 C66.6992337,214.18278 62.552682,215 58.3706897,215 C48.5181992,215 37.637931,206.863328 25.7298851,190.589985 C8.57662835,167.281441 0,141.876549 0,114.37531 C0,94.8330854 5.35153257,79.0927119 16.0545977,67.1541894 C26.7576628,55.2156668 40.933908,49.2464056 58.5833333,49.2464056 C65.1752874,49.2464056 71.341954,50.4544703 77.0833333,52.8705999 L81.0172414,54.4695092 L85.1637931,56.1750124 C88.8496169,57.7383903 91.8266284,58.5200793 94.0948276,58.5200793 C97.0009579,58.5200793 100.226054,57.8449843 103.770115,56.4947942 L109.192529,54.3629152 L113.232759,52.8705999 C119.68295,50.525533 126.806513,49.3529995 134.603448,49.3529995 C153.103448,49.3529995 167.988506,56.4237316 179.258621,70.5651958 Z M135.454023,0 C135.666667,2.4871922 135.772989,4.40588333 135.772989,5.75607338 C135.772989,18.0499091 131.307471,28.8336639 122.376437,38.1073376 C113.445402,47.3810114 103.061303,52.0178483 91.2241379,52.0178483 C90.8697318,49.2464056 90.6925287,47.2566518 90.6925287,46.048587 C90.6925287,35.6023798 94.8390805,25.7957362 103.132184,16.6286564 C111.425287,7.4615766 121.029693,2.09634771 131.945402,0.532969757 C132.725096,0.390844489 133.894636,0.213187903 135.454023,0 Z" id="Shape"></path>
                </g>
                <text id="App-Store-Editors’-C" font-family="MyriadPro-Regular, Myriad Pro" font-size="95" font-weight="normal" fill="#FFFFFF">
                    <tspan x="367.2575" y="331">App Store</tspan>
                    <tspan x="249.8375" y="426" font-family="MyriadPro-Bold, Myriad Pro" font-weight="bold">Editors’ Choice</tspan>
                </text>
                <g id="Group-3" opacity="0.5" transform="translate(0.000000, 25.000000)">
                    <mask id="mask-2" fill="white">
                        <use xlink:href="#path-1"></use>
                    </mask>
                    <g id="Clip-2"></g>
                    <path d="M245.001666,464.101645 C230.389615,459.688925 216.454872,454.845426 203.702638,449.808629 C213.956611,437.857281 203.164124,400.418194 183.277967,382.866723 C180.513225,407.144969 183.255761,432.991691 192.993426,445.440091 C176.52156,438.448221 162.453575,431.257531 151.872053,424.492096 C170.675629,418.185054 168.343919,377.636628 154.964345,353.993504 C138.20379,379.392879 138.46472,407.16706 146.053881,420.587474 C146.015019,420.565382 145.976157,420.532246 145.937295,420.5212 C145.748538,420.372084 145.576435,420.24506 145.39323,420.101467 C144.416132,419.239909 143.339104,418.439103 142.167697,417.710093 C130.231562,408.774196 119.139284,398.689556 109.035207,387.572152 C124.64101,384.551178 137.432105,346.708926 130.808938,320.608155 C113.310009,340.854754 100.185812,366.320403 104.094202,381.960983 C94.1955373,370.363095 85.3294872,357.743488 77.6459472,344.295461 C97.3544494,346.200828 112.09974,308.408281 109.779133,281.407293 C84.4745268,297.263263 73.0824573,321.944673 73.8485907,337.358819 C66.3760149,323.248055 60.1969831,308.275734 55.4558391,292.635153 C70.9783665,296.31334 97.8318948,266.164354 101.923491,239.384278 C78.0012554,251.247261 56.033215,269.560878 53.3850585,285.427894 C49.5488401,271.300562 46.8840286,256.659608 45.5072093,241.621013 C63.1171724,250.91037 90.9589016,221.032001 98.8034407,194.986457 C69.712581,200.420896 50.1151126,218.867061 44.8854199,233.414127 C44.4690431,226.554804 44.2969407,219.607117 44.4301813,212.604202 C44.6133871,203.055274 45.3351069,193.589188 46.5342721,184.239081 C59.4197463,193.760395 95.7833209,175.109886 109.346101,151.345261 C82.90895,153.896796 55.9999048,163.092265 47.6390585,176.844047 C49.893045,162.479234 53.2906797,148.429221 57.8430662,134.854169 C70.2566467,150.881345 107.958179,133.545264 125.285006,112.160967 C95.8832513,106.174248 70.395439,116.258888 60.3080169,127.967232 C65.5155028,113.779149 71.938809,100.132301 79.5390737,87.2089394 C87.9665403,100.872356 128.94357,96.3381343 150.217649,78.9026424 C124.690975,71.9218182 96.3606967,70.9332364 83.5529461,80.6975536 C89.4210833,71.4137203 95.8499412,62.494392 102.90614,54.0721161 C118.750666,59.0371168 156.280095,29.5840036 165.878969,-0.00165684117 C110.306544,3.35620793 100.252432,38.5364687 101.257288,53.398334 C101.279495,53.4149024 101.312805,53.425948 101.346115,53.4369936 C95.9276649,59.8047865 90.8201094,66.41006 86.0678621,73.2693824 C90.6202485,58.6615661 89.4488417,36.0898666 76.6521945,14.5785454 C61.7459048,38.2161461 57.6820671,80.2722977 78.0512206,85.6570315 C71.7722583,95.9736292 66.2538777,106.737574 61.4960787,117.877069 C61.3961483,102.556811 52.4079609,81.7358408 40.1720344,63.9524122 C30.4898857,89.7659976 39.677934,130.021715 55.5280111,133.164191 C51.9860324,143.276445 49.1324633,153.675884 46.8729252,164.263099 C44.5079049,149.633192 35.3032016,131.435553 17.5433428,117.402108 C12.1748579,144.403097 23.106137,184.421334 43.519704,183.388569 C42.2317117,192.965111 41.4489233,202.690769 41.2601658,212.548974 C41.1935455,215.956544 41.221304,219.342023 41.2823726,222.721979 C34.8701697,208.953628 19.1089196,193.765918 1.69326569,182.344759 C2.5260193,209.903551 26.3594278,243.752816 42.2372634,240.632432 C43.2643262,252.478846 45.0575223,264.082257 47.6057484,275.387436 C39.3947977,262.812012 22.8341041,249.640125 0,244.410029 C6.8618898,271.17906 34.1873118,302.730839 52.1747899,292.745609 C55.9554913,305.35417 60.6577734,317.531953 66.2094642,329.190592 C54.7285676,319.105952 33.7265214,311.661212 12.7799922,308.446941 C25.1269524,333.227762 61.096357,354.087392 74.1150718,344.466668 C80.0775877,355.059405 86.75072,365.121954 94.0734002,374.615654 C81.4266486,366.579974 61.1907357,361.355402 38.4621137,365.674234 C55.6501483,387.472741 93.6015064,405.421854 105.909605,388.831351 C113.848523,397.656792 122.392575,405.852633 131.480693,413.358123 C117.173985,409.641276 97.1490368,410.607767 78.4453906,414.805098 C98.9533363,433.295445 139.830436,439.657715 148.652072,426.198642 C157.401537,432.019678 168.393885,438.299106 181.179428,444.589579 C166.656205,443.346948 147.591699,447.262616 129.981736,459.539809 C154.431382,472.286441 195.952478,473.258454 200.926792,453.635932 C214.411849,459.418308 229.251519,465.007385 245.001666,470 L245.001666,464.101645 Z" id="Fill-1" fill="#FFFFFF" mask="url(#mask-2)"></path>
                </g>
                <g id="Group-3-Copy" opacity="0.5" transform="translate(1002.500000, 260.000000) scale(-1, 1) translate(-1002.500000, -260.000000) translate(880.000000, 25.000000)">
                    <mask id="mask-4" fill="white">
                        <use xlink:href="#path-3"></use>
                    </mask>
                    <g id="Clip-2"></g>
                    <path d="M245.001666,464.101645 C230.389615,459.688925 216.454872,454.845426 203.702638,449.808629 C213.956611,437.857281 203.164124,400.418194 183.277967,382.866723 C180.513225,407.144969 183.255761,432.991691 192.993426,445.440091 C176.52156,438.448221 162.453575,431.257531 151.872053,424.492096 C170.675629,418.185054 168.343919,377.636628 154.964345,353.993504 C138.20379,379.392879 138.46472,407.16706 146.053881,420.587474 C146.015019,420.565382 145.976157,420.532246 145.937295,420.5212 C145.748538,420.372084 145.576435,420.24506 145.39323,420.101467 C144.416132,419.239909 143.339104,418.439103 142.167697,417.710093 C130.231562,408.774196 119.139284,398.689556 109.035207,387.572152 C124.64101,384.551178 137.432105,346.708926 130.808938,320.608155 C113.310009,340.854754 100.185812,366.320403 104.094202,381.960983 C94.1955373,370.363095 85.3294872,357.743488 77.6459472,344.295461 C97.3544494,346.200828 112.09974,308.408281 109.779133,281.407293 C84.4745268,297.263263 73.0824573,321.944673 73.8485907,337.358819 C66.3760149,323.248055 60.1969831,308.275734 55.4558391,292.635153 C70.9783665,296.31334 97.8318948,266.164354 101.923491,239.384278 C78.0012554,251.247261 56.033215,269.560878 53.3850585,285.427894 C49.5488401,271.300562 46.8840286,256.659608 45.5072093,241.621013 C63.1171724,250.91037 90.9589016,221.032001 98.8034407,194.986457 C69.712581,200.420896 50.1151126,218.867061 44.8854199,233.414127 C44.4690431,226.554804 44.2969407,219.607117 44.4301813,212.604202 C44.6133871,203.055274 45.3351069,193.589188 46.5342721,184.239081 C59.4197463,193.760395 95.7833209,175.109886 109.346101,151.345261 C82.90895,153.896796 55.9999048,163.092265 47.6390585,176.844047 C49.893045,162.479234 53.2906797,148.429221 57.8430662,134.854169 C70.2566467,150.881345 107.958179,133.545264 125.285006,112.160967 C95.8832513,106.174248 70.395439,116.258888 60.3080169,127.967232 C65.5155028,113.779149 71.938809,100.132301 79.5390737,87.2089394 C87.9665403,100.872356 128.94357,96.3381343 150.217649,78.9026424 C124.690975,71.9218182 96.3606967,70.9332364 83.5529461,80.6975536 C89.4210833,71.4137203 95.8499412,62.494392 102.90614,54.0721161 C118.750666,59.0371168 156.280095,29.5840036 165.878969,-0.00165684117 C110.306544,3.35620793 100.252432,38.5364687 101.257288,53.398334 C101.279495,53.4149024 101.312805,53.425948 101.346115,53.4369936 C95.9276649,59.8047865 90.8201094,66.41006 86.0678621,73.2693824 C90.6202485,58.6615661 89.4488417,36.0898666 76.6521945,14.5785454 C61.7459048,38.2161461 57.6820671,80.2722977 78.0512206,85.6570315 C71.7722583,95.9736292 66.2538777,106.737574 61.4960787,117.877069 C61.3961483,102.556811 52.4079609,81.7358408 40.1720344,63.9524122 C30.4898857,89.7659976 39.677934,130.021715 55.5280111,133.164191 C51.9860324,143.276445 49.1324633,153.675884 46.8729252,164.263099 C44.5079049,149.633192 35.3032016,131.435553 17.5433428,117.402108 C12.1748579,144.403097 23.106137,184.421334 43.519704,183.388569 C42.2317117,192.965111 41.4489233,202.690769 41.2601658,212.548974 C41.1935455,215.956544 41.221304,219.342023 41.2823726,222.721979 C34.8701697,208.953628 19.1089196,193.765918 1.69326569,182.344759 C2.5260193,209.903551 26.3594278,243.752816 42.2372634,240.632432 C43.2643262,252.478846 45.0575223,264.082257 47.6057484,275.387436 C39.3947977,262.812012 22.8341041,249.640125 0,244.410029 C6.8618898,271.17906 34.1873118,302.730839 52.1747899,292.745609 C55.9554913,305.35417 60.6577734,317.531953 66.2094642,329.190592 C54.7285676,319.105952 33.7265214,311.661212 12.7799922,308.446941 C25.1269524,333.227762 61.096357,354.087392 74.1150718,344.466668 C80.0775877,355.059405 86.75072,365.121954 94.0734002,374.615654 C81.4266486,366.579974 61.1907357,361.355402 38.4621137,365.674234 C55.6501483,387.472741 93.6015064,405.421854 105.909605,388.831351 C113.848523,397.656792 122.392575,405.852633 131.480693,413.358123 C117.173985,409.641276 97.1490368,410.607767 78.4453906,414.805098 C98.9533363,433.295445 139.830436,439.657715 148.652072,426.198642 C157.401537,432.019678 168.393885,438.299106 181.179428,444.589579 C166.656205,443.346948 147.591699,447.262616 129.981736,459.539809 C154.431382,472.286441 195.952478,473.258454 200.926792,453.635932 C214.411849,459.418308 229.251519,465.007385 245.001666,470 L245.001666,464.101645 Z" id="Fill-1" fill="#FFFFFF" mask="url(#mask-4)"></path>
                </g>
            </g>
        </g>
    </g>
</svg>