<?xml version="1.0" encoding="UTF-8"?>
<svg width="289px" height="181px" viewBox="0 0 289 181" version="1.1" xmlns="http://www.w3.org/2000/svg" xmlns:xlink="http://www.w3.org/1999/xlink">
    <title>Group</title>
    <g id="Page-2" stroke="none" stroke-width="1" fill="none" fill-rule="evenodd">
        <g id="nextdoor_newsfeed_giaw" transform="translate(-871.000000, -427.000000)">
            <g id="Group" transform="translate(871.000000, 427.000000)">
                <g id="stars-4.5" transform="translate(1.000000, 85.000000)" fill-rule="nonzero">
                    <rect id="Rectangle-path" fill="#00B67A" x="0" y="0" width="53.76" height="53.76"></rect>
                    <rect id="Rectangle" fill="#00B67A" x="58.24" y="0" width="53.76" height="53.76"></rect>
                    <rect id="Rectangle" fill="#00B67A" x="116.48" y="0" width="53.76" height="53.76"></rect>
                    <rect id="Rectangle" fill="#00B67A" x="174.72" y="0" width="53.76" height="53.76"></rect>
                    <g id="Half" transform="translate(232.960000, 0.000000)">
                        <rect id="Rectangle" fill="#DCDCE6" x="26.88" y="0" width="26.88" height="53.76"></rect>
                        <rect id="Rectangle" fill="#00B67A" x="0" y="0" width="26.88" height="53.76"></rect>
                    </g>
                    <path d="M26.88,36.232 L35.056,34.16 L38.472,44.688 L26.88,36.232 Z M45.696,22.624 L31.304,22.624 L26.88,9.072 L22.456,22.624 L8.064,22.624 L19.712,31.024 L15.288,44.576 L26.936,36.176 L34.104,31.024 L45.696,22.624 L45.696,22.624 L45.696,22.624 L45.696,22.624 Z" id="Shape" fill="#FFFFFF"></path>
                    <path d="M85.12,36.232 L93.296,34.16 L96.712,44.688 L85.12,36.232 Z M103.936,22.624 L89.544,22.624 L85.12,9.072 L80.696,22.624 L66.304,22.624 L77.952,31.024 L73.528,44.576 L85.176,36.176 L92.344,31.024 L103.936,22.624 L103.936,22.624 L103.936,22.624 L103.936,22.624 Z" id="Shape" fill="#FFFFFF"></path>
                    <path d="M143.36,36.232 L151.536,34.16 L154.952,44.688 L143.36,36.232 Z M162.176,22.624 L147.784,22.624 L143.36,9.072 L138.936,22.624 L124.544,22.624 L136.192,31.024 L131.768,44.576 L143.416,36.176 L150.584,31.024 L162.176,22.624 L162.176,22.624 L162.176,22.624 L162.176,22.624 Z" id="Shape" fill="#FFFFFF"></path>
                    <path d="M201.6,36.232 L209.776,34.16 L213.192,44.688 L201.6,36.232 Z M220.416,22.624 L206.024,22.624 L201.6,9.072 L197.176,22.624 L182.784,22.624 L194.432,31.024 L190.008,44.576 L201.656,36.176 L208.824,31.024 L220.416,22.624 L220.416,22.624 L220.416,22.624 L220.416,22.624 Z" id="Shape" fill="#FFFFFF"></path>
                    <path d="M259.84,36.232 L268.016,34.16 L271.432,44.688 L259.84,36.232 Z M278.656,22.624 L264.264,22.624 L259.84,9.072 L255.416,22.624 L241.024,22.624 L252.672,31.024 L248.248,44.576 L259.896,36.176 L267.064,31.024 L278.656,22.624 L278.656,22.624 L278.656,22.624 L278.656,22.624 Z" id="Shape" fill="#FFFFFF"></path>
                </g>
                <text id="4.7-out-of-5" font-family="HelveticaNeue-Bold, Helvetica Neue" font-size="32.246154" font-weight="bold" letter-spacing="-0.732867169" fill="#FFFFFF">
                    <tspan x="64.2673565" y="174">4.7 out of 5</tspan>
                </text>
                <g id="logo-white" fill-rule="nonzero">
                    <path d="M75.9358341,25.1503972 L105.192939,25.1503972 L105.192939,30.6090026 L93.6890556,30.6090026 L93.6890556,61.2945278 L87.3631951,61.2945278 L87.3631951,30.6090026 L75.9103266,30.6090026 L75.9103266,25.1503972 L75.9358341,25.1503972 Z M103.943071,35.1238305 L109.350662,35.1238305 L109.350662,40.174316 L109.452692,40.174316 C109.631244,39.4601059 109.962842,38.7714034 110.447485,38.1082083 C110.932127,37.4450132 111.5188,36.8073257 112.207502,36.2716681 C112.896205,35.7105031 113.66143,35.2768756 114.503177,34.9197705 C115.344925,34.588173 116.21218,34.4096205 117.079435,34.4096205 C117.74263,34.4096205 118.227273,34.435128 118.482348,34.4606355 C118.737423,34.486143 118.992498,34.537158 119.27308,34.5626655 L119.27308,40.123301 C118.86496,40.0467785 118.45684,39.9957635 118.023213,39.9447485 C117.589585,39.8937335 117.181465,39.8682259 116.773345,39.8682259 C115.80406,39.8682259 114.88579,40.072286 114.018535,40.4548985 C113.15128,40.837511 112.411562,41.4241836 111.773875,42.1639011 C111.136187,42.9291262 110.626037,43.8473963 110.243425,44.9697264 C109.860812,46.0920565 109.682259,47.3674316 109.682259,48.8213592 L109.682259,61.2690203 L103.917564,61.2690203 L103.917564,35.1238305 L103.943071,35.1238305 Z M145.775375,61.2945278 L140.11271,61.2945278 L140.11271,57.646955 L140.01068,57.646955 C139.29647,58.9733451 138.250662,60.0191527 136.847749,60.8098853 C135.444837,61.6006178 134.016417,62.0087379 132.562489,62.0087379 C129.118976,62.0087379 126.619241,61.1669903 125.088791,59.4579876 C123.558341,57.748985 122.793116,55.1727273 122.793116,51.7292145 L122.793116,35.1238305 L128.557811,35.1238305 L128.557811,51.1680494 C128.557811,53.4637246 128.991439,55.0962048 129.884201,56.0399823 C130.751456,56.9837599 132.001324,57.4684025 133.582789,57.4684025 C134.807149,57.4684025 135.801942,57.28985 136.618182,56.9072374 C137.434422,56.5246249 138.097617,56.0399823 138.582259,55.4022948 C139.09241,54.7901147 139.449515,54.0248897 139.679082,53.1576346 C139.90865,52.2903795 140.01068,51.3466019 140.01068,50.3263019 L140.01068,35.149338 L145.775375,35.149338 L145.775375,61.2945278 Z M155.595763,52.9025596 C155.774316,54.5860547 156.412004,55.7593998 157.508826,56.4481024 C158.631156,57.1112974 159.957546,57.4684025 161.513504,57.4684025 C162.049162,57.4684025 162.661342,57.4173875 163.350044,57.340865 C164.038747,57.2643425 164.701942,57.0857899 165.288614,56.8562224 C165.900794,56.6266549 166.385437,56.2695499 166.793557,55.8104148 C167.176169,55.3512798 167.354722,54.7646072 167.329214,54.0248897 C167.303707,53.2851721 167.023124,52.6729921 166.512974,52.213857 C166.002824,51.7292145 165.365137,51.3721094 164.574404,51.0660194 C163.783672,50.7854369 162.890909,50.5303619 161.870609,50.3263019 C160.850309,50.1222418 159.830009,49.8926743 158.784201,49.6631068 C157.712886,49.4335393 156.667079,49.1274492 155.672286,48.7958517 C154.677493,48.4642542 153.784731,48.0051192 152.993998,47.4184466 C152.203266,46.8572816 151.565578,46.117564 151.106443,45.2248014 C150.621801,44.3320388 150.392233,43.2352162 150.392233,41.9088261 C150.392233,40.480406 150.749338,39.3070609 151.438041,38.3377758 C152.126743,37.3684907 153.019506,36.6032657 154.065313,36.0165931 C155.136628,35.4299206 156.309974,35.0218005 157.610856,34.7667255 C158.911739,34.537158 160.161606,34.4096205 161.334951,34.4096205 C162.686849,34.4096205 163.987732,34.5626655 165.212092,34.843248 C166.436452,35.1238305 167.558782,35.5829656 168.553575,36.2461606 C169.548367,36.8838482 170.364607,37.7255958 171.027802,38.7458959 C171.690997,39.7661959 172.099117,41.0160635 172.27767,42.4699912 L166.257899,42.4699912 C165.977317,41.0925861 165.365137,40.1488085 164.370344,39.6896734 C163.375552,39.2050309 162.227714,38.9754634 160.952339,38.9754634 C160.544219,38.9754634 160.059576,39.0009709 159.498411,39.0774934 C158.937246,39.1540159 158.427096,39.2815534 157.916946,39.4601059 C157.432304,39.6386584 157.024184,39.919241 156.667079,40.276346 C156.335481,40.633451 156.156929,41.0925861 156.156929,41.6792586 C156.156929,42.3934687 156.412004,42.9546337 156.896646,43.3882613 C157.381289,43.8218888 158.018976,44.1789938 158.809709,44.4850838 C159.600441,44.7656664 160.493204,45.0207414 161.513504,45.2248014 C162.533804,45.4288614 163.579612,45.6584289 164.650927,45.8879965 C165.696734,46.117564 166.717034,46.423654 167.737335,46.7552515 C168.757635,47.0868491 169.650397,47.5459841 170.44113,48.1326567 C171.231862,48.7193292 171.86955,49.4335393 172.354192,50.3007944 C172.838835,51.1680494 173.09391,52.264872 173.09391,53.5402471 C173.09391,55.0962048 172.736805,56.3970874 172.022595,57.49391 C171.308385,58.5652251 170.390115,59.4579876 169.267785,60.1211827 C168.145455,60.7843778 166.870079,61.2945278 165.492674,61.6006178 C164.115269,61.9067079 162.737864,62.0597529 161.385966,62.0597529 C159.727979,62.0597529 158.197529,61.8812004 156.794616,61.4985878 C155.391703,61.1159753 154.167343,60.5548102 153.147043,59.8150927 C152.126743,59.0498676 151.310503,58.10609 150.723831,56.9837599 C150.137158,55.8614298 149.831068,54.5095322 149.780053,52.9535746 L155.595763,52.9535746 L155.595763,52.9025596 Z M174.62436,35.1238305 L178.986143,35.1238305 L178.986143,27.2675199 L184.750838,27.2675199 L184.750838,35.1238305 L189.954369,35.1238305 L189.954369,39.4345984 L184.750838,39.4345984 L184.750838,53.4127096 C184.750838,54.0248897 184.776346,54.5350397 184.827361,54.9941748 C184.878376,55.4278023 185.005914,55.8104148 185.184466,56.1165049 C185.363019,56.4225949 185.643601,56.6521624 186.026214,56.8052074 C186.408826,56.9582524 186.893469,57.0347749 187.556664,57.0347749 C187.964784,57.0347749 188.372904,57.0347749 188.781024,57.0092674 C189.189144,56.9837599 189.597264,56.9327449 190.005384,56.8307149 L190.005384,61.2945278 C189.367696,61.3710503 188.730009,61.4220653 188.143336,61.4985878 C187.531156,61.5751103 186.918976,61.6006178 186.281289,61.6006178 C184.750838,61.6006178 183.526478,61.4475728 182.608208,61.1669903 C181.689938,60.8864078 180.950221,60.4527802 180.440071,59.8916152 C179.904413,59.3304501 179.572816,58.6417476 179.368756,57.8 C179.190203,56.9582524 179.062665,55.9889673 179.037158,54.9176523 L179.037158,39.4856134 L174.675375,39.4856134 L174.675375,35.1238305 L174.62436,35.1238305 Z M194.035569,35.1238305 L199.494175,35.1238305 L199.494175,38.6693733 L199.596205,38.6693733 C200.412445,37.1389232 201.534775,36.0676081 202.988703,35.4044131 C204.44263,34.741218 205.998588,34.4096205 207.70759,34.4096205 C209.773698,34.4096205 211.559223,34.7667255 213.089673,35.5064431 C214.620124,36.2206531 215.895499,37.2154457 216.915799,38.4908208 C217.936099,39.7661959 218.675816,41.2456311 219.185966,42.9291262 C219.696117,44.6126214 219.951192,46.423654 219.951192,48.3367167 C219.951192,50.0967343 219.721624,51.805737 219.262489,53.4382171 C218.803354,55.0962048 218.114651,56.5501324 217.196381,57.8255075 C216.278111,59.1008826 215.104766,60.0956752 213.676346,60.8609003 C212.247926,61.6261253 210.589938,62.0087379 208.651368,62.0087379 C207.80962,62.0087379 206.967873,61.9322154 206.126125,61.7791703 C205.284378,61.6261253 204.468138,61.3710503 203.702913,61.0394528 C202.937688,60.7078553 202.19797,60.2742277 201.560282,59.7385702 C200.897087,59.2029126 200.36143,58.5907326 199.902295,57.90203 L199.800265,57.90203 L199.800265,70.9618711 L194.035569,70.9618711 L194.035569,35.1238305 L194.035569,35.1238305 Z M214.186496,48.2346867 C214.186496,47.0613416 214.033451,45.913504 213.727361,44.7911739 C213.421271,43.6688438 212.962136,42.6995587 212.349956,41.8323036 C211.737776,40.9650485 210.972551,40.276346 210.079788,39.7661959 C209.161518,39.2560459 208.115711,38.9754634 206.942365,38.9754634 C204.519153,38.9754634 202.682613,39.8172109 201.458252,41.5007061 C200.233892,43.1842012 199.621712,45.4288614 199.621712,48.2346867 C199.621712,49.5610768 199.774757,50.7854369 200.106355,51.907767 C200.437952,53.0300971 200.897087,53.9993822 201.560282,54.8156222 C202.19797,55.6318623 202.963195,56.2695499 203.855958,56.7286849 C204.74872,57.2133274 205.794528,57.442895 206.967873,57.442895 C208.294263,57.442895 209.391086,57.1623124 210.309356,56.6266549 C211.227626,56.0909974 211.967343,55.3767873 212.554016,54.5350397 C213.140688,53.6677846 213.574316,52.6984996 213.829391,51.601677 C214.058959,50.5048544 214.186496,49.3825243 214.186496,48.2346867 L214.186496,48.2346867 Z M224.363989,25.1503972 L230.128685,25.1503972 L230.128685,30.6090026 L224.363989,30.6090026 L224.363989,25.1503972 Z M224.363989,35.1238305 L230.128685,35.1238305 L230.128685,61.2945278 L224.363989,61.2945278 L224.363989,35.1238305 Z M235.2812,25.1503972 L241.045896,25.1503972 L241.045896,61.2945278 L235.2812,61.2945278 L235.2812,25.1503972 Z M258.722595,62.0087379 C256.63098,62.0087379 254.768932,61.6516328 253.136452,60.9629303 C251.503972,60.2742277 250.126567,59.3049426 248.978729,58.10609 C247.856399,56.8817299 246.989144,55.4278023 246.402471,53.7443071 C245.815799,52.060812 245.509709,50.1987643 245.509709,48.1836717 C245.509709,46.1940865 245.815799,44.3575463 246.402471,42.6740512 C246.989144,40.990556 247.856399,39.5366284 248.978729,38.3122683 C250.101059,37.0879082 251.503972,36.1441306 253.136452,35.4554281 C254.768932,34.7667255 256.63098,34.4096205 258.722595,34.4096205 C260.81421,34.4096205 262.676258,34.7667255 264.308738,35.4554281 C265.941218,36.1441306 267.318623,37.1134157 268.466461,38.3122683 C269.588791,39.5366284 270.456046,40.990556 271.042718,42.6740512 C271.629391,44.3575463 271.935481,46.1940865 271.935481,48.1836717 C271.935481,50.1987643 271.629391,52.060812 271.042718,53.7443071 C270.456046,55.4278023 269.588791,56.8817299 268.466461,58.10609 C267.344131,59.3304501 265.941218,60.2742277 264.308738,60.9629303 C262.676258,61.6516328 260.81421,62.0087379 258.722595,62.0087379 Z M258.722595,57.442895 C259.99797,57.442895 261.1203,57.1623124 262.064078,56.6266549 C263.007855,56.0909974 263.77308,55.3767873 264.38526,54.5095322 C264.99744,53.6422771 265.431068,52.6474846 265.737158,51.550662 C266.017741,50.4538394 266.170786,49.3315093 266.170786,48.1836717 C266.170786,47.0613416 266.017741,45.964519 265.737158,44.8421889 C265.456575,43.7198588 264.99744,42.7505737 264.38526,41.8833186 C263.77308,41.0160635 263.007855,40.327361 262.064078,39.7917034 C261.1203,39.2560459 259.99797,38.9754634 258.722595,38.9754634 C257.44722,38.9754634 256.32489,39.2560459 255.381112,39.7917034 C254.437335,40.327361 253.672109,41.0415711 253.059929,41.8833186 C252.447749,42.7505737 252.014122,43.7198588 251.708032,44.8421889 C251.427449,45.964519 251.274404,47.0613416 251.274404,48.1836717 C251.274404,49.3315093 251.427449,50.4538394 251.708032,51.550662 C251.988614,52.6474846 252.447749,53.6422771 253.059929,54.5095322 C253.672109,55.3767873 254.437335,56.0909974 255.381112,56.6266549 C256.32489,57.1878199 257.44722,57.442895 258.722595,57.442895 L258.722595,57.442895 Z M273.618976,35.1238305 L277.980759,35.1238305 L277.980759,27.2675199 L283.745455,27.2675199 L283.745455,35.1238305 L288.948985,35.1238305 L288.948985,39.4345984 L283.745455,39.4345984 L283.745455,53.4127096 C283.745455,54.0248897 283.770962,54.5350397 283.821977,54.9941748 C283.872992,55.4278023 284.00053,55.8104148 284.179082,56.1165049 C284.357635,56.4225949 284.638217,56.6521624 285.02083,56.8052074 C285.403442,56.9582524 285.888085,57.0347749 286.55128,57.0347749 C286.9594,57.0347749 287.36752,57.0347749 287.77564,57.0092674 C288.18376,56.9837599 288.59188,56.9327449 289,56.8307149 L289,61.2945278 C288.362312,61.3710503 287.724625,61.4220653 287.137952,61.4985878 C286.525772,61.5751103 285.913592,61.6006178 285.275905,61.6006178 C283.745455,61.6006178 282.521094,61.4475728 281.602824,61.1669903 C280.684554,60.8864078 279.944837,60.4527802 279.434687,59.8916152 C278.899029,59.3304501 278.567432,58.6417476 278.363372,57.8 C278.184819,56.9582524 278.057282,55.9889673 278.031774,54.9176523 L278.031774,39.4856134 L273.669991,39.4856134 L273.669991,35.1238305 L273.618976,35.1238305 Z" id="Shape" fill="#FFFFFF"></path>
                    <polygon id="Path" fill="#00B67A" points="69.2018535 25.1503972 42.7760812 25.1503972 34.6136805 0 26.4257723 25.1503972 0 25.1248897 21.4007944 40.684466 13.2128861 65.8093557 34.6136805 50.2752868 55.9889673 65.8093557 47.8265666 40.684466"></polygon>
                    <polygon id="Path" fill="#005128" points="49.6631068 46.372639 47.8265666 40.684466 34.6136805 50.2752868"></polygon>
                </g>
            </g>
        </g>
    </g>
</svg>