<svg width="18" height="18" viewBox="0 0 18 18" version="1.1" xmlns="http://www.w3.org/2000/svg" xmlns:xlink="http://www.w3.org/1999/xlink">
                    <title>icon-position-grey</title>
                    <g id="icons/ad-details/icon-position-grey-copy" stroke="none" stroke-width="1" fill="none" fill-rule="evenodd">
                      <path id="Path" d="M9,0 C5.69175,0 3,2.69175 3,6 C3,11.29275 8.485125,17.6048438 8.71875,17.8710938 C8.79,17.9524687 8.892,18 9,18 C9.11625,17.992125 9.21,17.9535937 9.28125,17.8710938 C9.514875,17.6003438 15,11.179875 15,6 C15,2.69175 12.30825,0 9,0 Z" fill="#999999"></path>
                      <path id="Path" d="M9,4.125 C10.242375,4.125 11.25,5.132625 11.25,6.375 C11.25,7.617375 10.242375,8.625 9,8.625 C7.757625,8.625 6.75,7.617375 6.75,6.375 C6.75,5.132625 7.757625,4.125 9,4.125 Z" fill="#FFFFFF"></path>
                    </g>
                  </svg>