<svg xmlns="http://www.w3.org/2000/svg" width="110" height="35" viewBox="0 0 110 35">
    <g fill="#FFF" fill-rule="evenodd">
        <path d="M19.124 23.41c.586 0 1.108-.127 1.566-.384l-.19 4.35c-1.198 1-2.56 1.5-4.088 1.5-2.318 0-3.82-.538-4.508-1.616-.458-.719-.688-1.482-.688-2.29 0-.809.051-1.52.153-2.136l2.292-13.01h6.494l-2.139 12.124a2.617 2.617 0 0 0-.038.424c0 .692.382 1.039 1.146 1.039z"/>
        <path d="M32.784 9.324c2.598 0 4.393.693 5.387 2.078.713.95 1.07 2.156 1.07 3.618 0 .59-.065 1.22-.192 1.886l-.764 4.504c-.433 2.437-1.362 4.291-2.789 5.561-1.426 1.27-3.208 1.905-5.348 1.905-2.139 0-3.629-.577-4.47-1.732l-1.252 7.226-6.483-.019 4.298-24.527h5.883l-.191 1.04c1.197-1.027 2.814-1.54 4.851-1.54zm-3.973 14.01c.713 0 1.376-.231 1.987-.693.611-.462.993-1.155 1.146-2.078l.496-2.887c.051-.257.077-.577.077-.962s-.166-.796-.497-1.232c-.33-.436-.904-.654-1.719-.654-1.324 0-2.19.32-2.597.962l-1.146 6.466c.356.719 1.107 1.078 2.253 1.078zM69.142 22.367c0 .667.337 1 1.012 1s1.241-.128 1.7-.384l-.191 4.349c-1.223 1-2.598 1.5-4.126 1.5-2.801 0-4.355-1.025-4.66-3.078-1.274 2.053-3.146 3.079-5.616 3.079-4.176 0-6.265-1.81-6.265-5.427 0-.616.064-1.296.191-2.04l.802-4.503c.408-2.31 1.344-4.15 2.808-5.523 1.465-1.373 3.375-2.06 5.73-2.06 2.356 0 3.954.552 4.794 1.656l.191-1.155h5.807l-2.14 12.124a2.824 2.824 0 0 0-.037.462zm-11.308-1.848c-.05.231-.076.552-.076.963 0 .41.19.814.573 1.212.382.398 1.025.596 1.929.596.904 0 1.687-.359 2.35-1.077l1.145-6.466c-.28-.642-.942-.963-1.986-.963-1.961 0-3.107.95-3.438 2.849l-.497 2.886zM7.117 28.876c-2.428 0-3.966-.97-4.99-2.001C1.159 25.9.675 24.59.675 22.949c0-.539.051-1.116.153-1.732l1.038-5.953-1.842.05.994-5.474c3.415-.067 3.74-.368 4.681-5.097l4.523-.022-.914 5.103h2.518l-.955 5.427H8.353l-.764 4.35c-.101.487-.214 1.553-.245 1.937-.076.945.268 1.804 1.459 1.796.659-.005 1.42.22 2.25-1.04.485-.737.717-1.616.92-2.77l6.05.078c-1.172 8.136-4.82 9.274-10.906 9.274z"/>
        <path d="M84.078 9.329c2.597 0 4.393.693 5.386 2.078.713.95 1.07 2.156 1.07 3.618 0 .59-.064 1.22-.192 1.886l-.764 4.503c-.432 2.438-1.362 4.292-2.788 5.562-1.426 1.27-3.21 1.905-5.348 1.905-2.14 0-3.63-.577-4.47-1.732l-1.253 7.226-6.483-.019L73.534 9.83h5.883l-.19 1.04c1.196-1.027 2.813-1.54 4.85-1.54zm-3.973 14.01c.713 0 1.375-.231 1.986-.693.611-.462.993-1.155 1.146-2.078l.497-2.887c.05-.257.076-.577.076-.962s-.165-.796-.496-1.232c-.332-.436-.905-.654-1.72-.654-1.324 0-2.19.32-2.597.962l-1.146 6.466c.356.719 1.108 1.078 2.254 1.078zM102.993 9.329c2.598 0 4.393.693 5.386 2.078.713.95 1.07 2.156 1.07 3.618 0 .59-.064 1.22-.191 1.886l-.764 4.503c-.433 2.438-1.363 4.292-2.789 5.562-1.426 1.27-3.209 1.905-5.348 1.905s-3.629-.577-4.47-1.732l-1.253 7.226-6.482-.019L92.45 9.83h5.883l-.191 1.04c1.197-1.027 2.814-1.54 4.851-1.54zm-3.973 14.01c.713 0 1.375-.231 1.987-.693.61-.462.993-1.155 1.146-2.078l.496-2.887c.051-.257.077-.577.077-.962s-.166-.796-.497-1.232c-.331-.436-.904-.654-1.719-.654-1.324 0-2.19.32-2.598.962l-1.146 6.466c.357.719 1.108 1.078 2.254 1.078zM46.665 28.876c-2.428 0-3.967-.97-4.99-2.001-.968-.975-1.452-2.284-1.452-3.926 0-.539.05-1.116.153-1.732l1.038-5.953-1.843.05.995-5.474c3.415-.067 3.74-.368 4.681-5.097l4.522-.022-.913 5.103h2.518l-.955 5.427H47.9l-.764 4.35c-.102.487-.214 1.553-.245 1.937-.076.945.268 1.804 1.459 1.796.659-.005 1.42.22 2.25-1.04.485-.737.716-1.616.92-2.77l6.05.078c-1.173 8.136-4.82 9.274-10.906 9.274zM17.737.142c2.141 0 3.88 1.751 3.88 3.908s-1.739 3.908-3.88 3.908c-2.14 0-3.879-1.75-3.879-3.908 0-2.157 1.738-3.908 3.88-3.908z"/>
    </g>
</svg>
